<svg width="24" height="24" fill="none" xmlns="http://www.w3.org/2000/svg"><path d="M10.3 4.5h3.4a5.5 5.5 0 0 1 5.475 4.965l.684 7a5.5 5.5 0 0 1-5.474 6.035h-4.77a5.5 5.5 0 0 1-5.474-6.035l.684-7A5.5 5.5 0 0 1 10.3 4.5Z" stroke="#1B2837"/><path d="M9.74 12.5h4.52a2.5 2.5 0 0 1 2.49 2.274l.455 5a2.5 2.5 0 0 1-2.49 2.726h-5.43a2.5 2.5 0 0 1-2.49-2.726l.455-5A2.5 2.5 0 0 1 9.74 12.5ZM7.5 15h9" stroke="#1B2837"/><path d="M14 15v1.5M6 6V3.5A1.5 1.5 0 0 1 7.5 2v0A1.5 1.5 0 0 1 9 3.5v1" stroke="#1B2837" stroke-linecap="round"/><path d="M18.5 6a.5.5 0 0 1-1 0h1Zm-3-1.5a.5.5 0 0 1-1 0h1Zm2 1.5V3.5h1V6h-1Zm-2-2.5v1h-1v-1h1Zm1-1a1 1 0 0 0-1 1h-1a2 2 0 0 1 2-2v1Zm1 1a1 1 0 0 0-1-1v-1a2 2 0 0 1 2 2h-1Z" fill="#1B2837"/><path d="m12.354 7.06 1.085 1.086a.5.5 0 0 1 0 .708l-1.085 1.085a.5.5 0 0 1-.708 0l-1.085-1.085a.5.5 0 0 1 0-.708l1.085-1.085a.5.5 0 0 1 .708 0Z" stroke="#1B2837"/></svg>