<svg width="16" height="16" fill="none" xmlns="http://www.w3.org/2000/svg"><path d="M15 14c0-.448-.152-.885-.435-1.252a2.417 2.417 0 0 0-1.148-.806l-3.061-.928a.335.335 0 0 0-.194 0 .303.303 0 0 0-.155.106 2.373 2.373 0 0 1-.873.702 2.658 2.658 0 0 1-2.271 0 2.372 2.372 0 0 1-.873-.702.303.303 0 0 0-.155-.105.336.336 0 0 0-.193 0l-3.06.927a2.417 2.417 0 0 0-1.147.806A2.053 2.053 0 0 0 1 14m3.613-7.095c-.662-.296-.83-1.485-.294-1.75C3.894 2.638 5.519.995 8.012 1c2.485.005 4.092 1.65 3.669 4.155.536.265.37 1.452-.294 1.75a.613.613 0 0 0-.352.452C10.761 8.957 8.854 10 8 10c-.854 0-2.763-1.042-3.035-2.643a.602.602 0 0 0-.352-.452Z" stroke="#1B2837" stroke-linecap="round" stroke-linejoin="round"/></svg>