<svg width="24" height="24" fill="none" xmlns="http://www.w3.org/2000/svg"><circle cx="15" cy="14" r="2.5" stroke="#1B2837"/><circle cx="15" cy="14" r="4.5" stroke="#1B2837"/><rect x="1.5" y="7.5" width="21" height="13" rx=".5" stroke="#1B2837"/><path d="M1.6 7.5h5.8a.1.1 0 0 1 .1.1 1.9 1.9 0 0 1-1.9 1.9H3.4a1.9 1.9 0 0 1-1.9-1.9.1.1 0 0 1 .1-.1ZM8 7v13.5m3.36-13h7.28a.5.5 0 0 0 .477-.65l-.625-2a.5.5 0 0 0-.477-.35h-6.03a.5.5 0 0 0-.477.35l-.625 2a.5.5 0 0 0 .477.65Z" stroke="#1B2837"/><rect x="5.5" y="5.5" width="4" height="2" rx="1" stroke="#1B2837"/></svg>