<svg width="16" height="16" fill="none" xmlns="http://www.w3.org/2000/svg"><mask id="LIGHT/ICONS/16/Settings__a" fill="#fff"><path fill-rule="evenodd" clip-rule="evenodd" d="M8.34 1c.585 0 1.06.475 1.06 1.06 0 .945 1.142 1.418 1.81.75a1.06 1.06 0 0 1 1.5 0l.48.48a1.06 1.06 0 0 1 0 1.5c-.668.668-.195 1.81.75 1.81.585 0 1.06.475 1.06 1.06v.68a1.06 1.06 0 0 1-1.06 1.06c-.945 0-1.418 1.142-.75 1.81a1.06 1.06 0 0 1 0 1.5l-.48.48a1.06 1.06 0 0 1-1.5 0c-.668-.668-1.81-.195-1.81.75A1.06 1.06 0 0 1 8.34 15h-.68a1.06 1.06 0 0 1-1.06-1.06c0-.945-1.142-1.418-1.81-.75a1.06 1.06 0 0 1-1.5 0l-.48-.48a1.06 1.06 0 0 1 0-1.5c.668-.668.195-1.81-.75-1.81A1.06 1.06 0 0 1 1 8.34v-.68c0-.585.475-1.06 1.06-1.06.945 0 1.418-1.142.75-1.81a1.06 1.06 0 0 1 0-1.5l.48-.48a1.06 1.06 0 0 1 1.5 0c.668.668 1.81.195 1.81-.75C6.6 1.475 7.075 1 7.66 1h.68Z"/></mask><path d="m11.21 2.81.707.707-.707-.707Zm1.5 0-.708.707.708-.707Zm.48.48.707-.707-.707.707Zm0 1.5-.707-.707.707.707Zm0 6.42-.707.707.707-.707Zm-1.98 1.98-.707.707.707-.707Zm-6.42 0-.707-.707.707.707Zm-1.5 0-.707.707.707-.707Zm-.48-.48.707-.708-.707.707Zm0-1.5-.707-.707.707.707ZM1 8.34h1-1Zm0-.68h1-1Zm1.81-2.87.707-.707-.707.707Zm0-1.5-.707-.707.707.707Zm.48-.48.708.707-.708-.707Zm1.5 0-.707.707.707-.707Zm5.61-.75A2.06 2.06 0 0 0 8.34 0v2a.06.06 0 0 1 .06.06h2Zm.103.043a.089.089 0 0 1-.021.017.022.022 0 0 1-.007.002.072.072 0 0 1-.038-.006.072.072 0 0 1-.03-.022.024.024 0 0 1-.004-.007.09.09 0 0 1-.003-.027h-2c0 1.836 2.22 2.755 3.517 1.457l-1.414-1.414Zm2.914 0a2.06 2.06 0 0 0-2.914 0l1.414 1.414a.06.06 0 0 1 .085 0l1.415-1.414Zm.48.48-.48-.48-1.415 1.414.48.48 1.415-1.414Zm0 2.914a2.06 2.06 0 0 0 0-2.914l-1.414 1.414a.06.06 0 0 1 0 .086l1.414 1.414Zm.043.103a.09.09 0 0 1-.027-.003.023.023 0 0 1-.007-.003.071.071 0 0 1-.022-.031.072.072 0 0 1-.006-.038c0-.002 0-.004.002-.007a.091.091 0 0 1 .017-.021l-1.414-1.414C11.185 5.38 12.104 7.6 13.94 7.6v-2ZM16 7.66a2.06 2.06 0 0 0-2.06-2.06v2a.06.06 0 0 1 .06.06h2Zm0 .68v-.68h-2v.68h2Zm-2.06 2.06A2.06 2.06 0 0 0 16 8.34h-2a.06.06 0 0 1-.06.06v2Zm-.043.103a.093.093 0 0 1-.017-.021.023.023 0 0 1-.002-.007.072.072 0 0 1 .006-.038.073.073 0 0 1 .022-.03.024.024 0 0 1 .007-.004.09.09 0 0 1 .027-.003v-2c-1.836 0-2.755 2.22-1.457 3.517l1.414-1.414Zm0 2.913a2.06 2.06 0 0 0 0-2.913l-1.414 1.414a.06.06 0 0 1 0 .085l1.414 1.414Zm-.48.481.48-.48-1.414-1.415-.48.48 1.414 1.415Zm-2.914 0a2.06 2.06 0 0 0 2.914 0l-1.415-1.414a.06.06 0 0 1-.085 0l-1.414 1.414Zm-.103.043a.09.09 0 0 1 .003-.027l.003-.007a.072.072 0 0 1 .031-.022.074.074 0 0 1 .038-.006.01.01 0 0 1 .007.002.09.09 0 0 1 .02.017l1.415-1.414C10.62 11.185 8.4 12.104 8.4 13.94h2ZM8.34 16a2.06 2.06 0 0 0 2.06-2.06h-2a.06.06 0 0 1-.06.06v2Zm-.68 0h.68v-2h-.68v2ZM5.6 13.94A2.06 2.06 0 0 0 7.66 16v-2a.06.06 0 0 1-.06-.06h-2Zm-.103-.043a.089.089 0 0 1 .021-.017.024.024 0 0 1 .007-.002.067.067 0 0 1 .038.006.072.072 0 0 1 .03.022.022.022 0 0 1 .004.007c0 .002.003.01.003.027h2c0-1.836-2.22-2.755-3.517-1.457l1.414 1.414Zm-2.914 0a2.06 2.06 0 0 0 2.914 0l-1.414-1.414a.06.06 0 0 1-.085 0l-1.415 1.414Zm-.48-.48.48.48 1.415-1.414-.48-.48-1.415 1.414Zm0-2.914a2.06 2.06 0 0 0 0 2.914l1.414-1.415a.06.06 0 0 1 0-.085l-1.414-1.414ZM2.06 10.4a.09.09 0 0 1 .027.003l.007.003a.072.072 0 0 1 .022.031.072.072 0 0 1 .006.038.022.022 0 0 1-.002.007.09.09 0 0 1-.017.02l1.414 1.415C4.815 10.62 3.896 8.4 2.06 8.4v2ZM0 8.34a2.06 2.06 0 0 0 2.06 2.06v-2A.06.06 0 0 1 2 8.34H0Zm0-.68v.68h2v-.68H0ZM2.06 5.6A2.06 2.06 0 0 0 0 7.66h2a.06.06 0 0 1 .06-.06v-2Zm.043-.103a.09.09 0 0 1 .017.021.022.022 0 0 1 .002.007.072.072 0 0 1-.006.038.072.072 0 0 1-.022.03.022.022 0 0 1-.007.004.09.09 0 0 1-.027.003v2c1.836 0 2.755-2.22 1.457-3.517L2.103 5.497Zm0-2.914a2.06 2.06 0 0 0 0 2.914l1.414-1.414a.06.06 0 0 1 0-.086L2.103 2.583Zm.48-.48-.48.48 1.414 1.414.48-.48-1.414-1.414Zm2.914 0a2.06 2.06 0 0 0-2.914 0l1.415 1.414a.06.06 0 0 1 .085 0l1.414-1.414ZM5.6 2.06a.09.09 0 0 1-.003.027.022.022 0 0 1-.003.007.072.072 0 0 1-.031.022.072.072 0 0 1-.038.006.022.022 0 0 1-.007-.002.09.09 0 0 1-.021-.017L4.083 3.517C5.38 4.815 7.6 3.896 7.6 2.06h-2ZM7.66 0A2.06 2.06 0 0 0 5.6 2.06h2A.06.06 0 0 1 7.66 2V0Zm.68 0h-.68v2h.68V0Z" fill="#1B2837" mask="url(#LIGHT/ICONS/16/Settings__a)"/><circle cx="8" cy="8" r="2.5" stroke="#1B2837"/></svg>