<svg width="16" height="16" fill="none" xmlns="http://www.w3.org/2000/svg"><path d="M8 10.667a2.667 2.667 0 1 0 0-5.334 2.667 2.667 0 0 0 0 5.334Z" stroke="#1B2837" stroke-linecap="round" stroke-linejoin="round"/><path d="M8 2.667V1.334m0 13.333v-1.333m2.667-9.953.666-1.154M4.667 13.773l.666-1.154m7.286-7.286 1.154-.667M2.226 11.333l1.155-.667M13.333 8h1.333M1.333 8h1.334m9.952 2.667 1.154.667M2.226 4.667l1.155.667m7.286 7.285.666 1.154M4.667 2.227l.666 1.154" stroke="#1B2837" stroke-linecap="round"/></svg>