<svg width="16" height="16" fill="none" xmlns="http://www.w3.org/2000/svg"><path d="M13.05 11H14a1 1 0 0 0 1-1V6a1 1 0 0 0-1-1H2.5a1 1 0 0 0-1 1v4a1 1 0 0 0 1 1h1.45" stroke="#1B2837" stroke-linecap="round"/><path d="m13.5 5-.186.597A2 2 0 0 1 11.404 7H5.096a2 2 0 0 1-1.909-1.403L3 5m.5 4h6.833M12 9h.667M6 10.666l-.667.445a.534.534 0 0 0 0 .889v0a.534.534 0 0 1 0 .889l-.666.444m4-2.667L8 11.111A.534.534 0 0 0 8 12v0a.534.534 0 0 1 0 .889l-.667.444m4-2.667-.666.445a.534.534 0 0 0 0 .889v0a.534.534 0 0 1 0 .889l-.667.444" stroke="#1B2837" stroke-linecap="round"/></svg>