<svg width="16" height="16" fill="none" xmlns="http://www.w3.org/2000/svg"><path d="m12.716 6.788.474 4.975A2.5 2.5 0 0 1 10.7 14.5H5.3a2.5 2.5 0 0 1-2.49-2.737l.474-4.975a4.737 4.737 0 0 1 9.432 0Z" stroke="#1B2837"/><path d="M7.395 8.5h1.21a2.5 2.5 0 0 1 2.49 2.263l.199 2.095A1.5 1.5 0 0 1 9.8 14.5H6.2a1.5 1.5 0 0 1-1.494-1.642l.2-2.095A2.5 2.5 0 0 1 7.395 8.5Z" stroke="#1B2837"/><path d="M4 4V2a1 1 0 0 1 1-1v0a1 1 0 0 1 1 1v.875" stroke="#1B2837" stroke-linecap="round"/><path d="M12.5 4a.5.5 0 0 1-1 0h1Zm-2-1.125a.5.5 0 0 1-1 0h1ZM11.5 4V2h1v2h-1Zm-1-2v.875h-1V2h1Zm.5-.5a.5.5 0 0 0-.5.5h-1A1.5 1.5 0 0 1 11 .5v1Zm.5.5a.5.5 0 0 0-.5-.5v-1A1.5 1.5 0 0 1 12.5 2h-1Z" fill="#1B2837"/><path d="m8.354 5.06.707.708a.5.5 0 0 1 0 .707l-.707.707a.5.5 0 0 1-.708 0l-.707-.707a.5.5 0 0 1 0-.707l.707-.707a.5.5 0 0 1 .708 0Z" stroke="#1B2837"/></svg>