<svg width="48" height="48" fill="none" xmlns="http://www.w3.org/2000/svg"><path d="m40 24 1.8-2.4A4 4 0 0 1 45 20h1a1 1 0 0 1 1 1v2a1 1 0 0 1-1 1h-6ZM8 24l-1.8-2.4A4 4 0 0 0 3 20H2a1 1 0 0 0-1 1v2a1 1 0 0 0 1 1h6Zm11 6h10" stroke="#B6BCC4" stroke-width="2" stroke-linecap="round" stroke-linejoin="round"/><path d="M9.5 23C5.1 25.8 5 31.5 5 35h16m17.5-12c4.4 2.8 4.5 8.5 4.5 12H21" stroke="#1B2837" stroke-width="2"/><circle cx="11.5" cy="29.5" r="2.5" stroke="#B6BCC4" stroke-width="2"/><circle cx="36.5" cy="29.5" r="2.5" stroke="#B6BCC4" stroke-width="2"/><path d="M9 35h6v1a3 3 0 1 1-6 0v-1Zm24 0h6v1a3 3 0 1 1-6 0v-1ZM17.64 10h12.72a7 7 0 0 1 6.88 5.71L38.796 24H9.205l1.554-8.29A7 7 0 0 1 17.64 10Z" stroke="#1B2837" stroke-width="2"/></svg>