<svg width="24" height="24" fill="none" xmlns="http://www.w3.org/2000/svg"><path d="M12 17v-6m3 3-3 3-3-3" stroke="#1B2837" stroke-linecap="round" stroke-linejoin="round"/><path d="M4 18V7a1 1 0 0 1 1-1h3.333c.258 0 .467.209.467.467 0 1.03.836 1.866 1.867 1.866h2.666A1.867 1.867 0 0 0 15.2 6.467c0-.258.209-.467.467-.467H19a1 1 0 0 1 1 1v11a2 2 0 0 1-2 2H6a2 2 0 0 1-2-2ZM6 6V5a1 1 0 0 1 1-1h2.333c.369 0 .667.298.667.667C10 5.403 10.597 6 11.333 6h1.334C13.403 6 14 5.403 14 4.667c0-.369.299-.667.667-.667H17a1 1 0 0 1 1 1v1" stroke="#1B2837"/></svg>