<svg width="48" height="48" fill="none" xmlns="http://www.w3.org/2000/svg"><path d="M9 13h30" stroke="#B6BCC4" stroke-width="2" stroke-linecap="round" stroke-dasharray="1 5"/><path d="m34.57 28.702-12.062 5.654a8 8 0 0 1-6.973-.089l-1.82-.91a.4.4 0 0 1 0-.715l.708-.353a4 4 0 0 1 3.223-.157l.926.356a.2.2 0 0 0 .153-.004l10.401-4.647a5 5 0 0 1 3.796-.116l1.633.612a.2.2 0 0 1 .015.369Z" stroke="#B6BCC4"/><path d="m20.01 27.324 5.865 1.926-4.125 1.875-6.502-3.01a.144.144 0 0 1-.014-.255 5.78 5.78 0 0 1 4.777-.536Z" stroke="#B6BCC4"/><path d="M9 37.648V45a2 2 0 0 0 2 2h26a2 2 0 0 0 2-2V3a2 2 0 0 0-2-2h-8.1a1 1 0 0 0-.98.8 4 4 0 0 1-7.84 0 1 1 0 0 0-.98-.8H11a2 2 0 0 0-2 2v22" stroke="#1B2837" stroke-width="2" stroke-linecap="round" stroke-linejoin="round"/></svg>