<svg width="16" height="16" fill="none" xmlns="http://www.w3.org/2000/svg"><path d="m4 6.5-.449-.524A2.795 2.795 0 0 0 1.429 5v0a.4.4 0 0 0-.303.146A.545.545 0 0 0 1 5.5V6c0 .133.045.26.126.354a.4.4 0 0 0 .303.146H4Zm8 0 .449-.524A2.795 2.795 0 0 1 14.571 5v0a.4.4 0 0 1 .303.146c.08.094.126.221.126.354V6c0 .133-.045.26-.126.354a.4.4 0 0 1-.303.146H12Z" stroke="#1B2837" stroke-linecap="round" stroke-linejoin="round"/><path d="M3.336 7c-1.466.862-1.333 2.923-1.333 4h6.333" stroke="#1B2837" stroke-linecap="round"/><path d="M12.636 7c1.2.862 1.364 2.923 1.364 4H8" stroke="#1B2837" stroke-linecap="round"/><circle cx="5" cy="9" r=".5" stroke="#1B2837"/><circle cx="11" cy="9" r=".5" stroke="#1B2837"/><path d="M3.5 11h2v.5a1 1 0 1 1-2 0V11Zm7 0h2v.5a1 1 0 1 1-2 0V11ZM7.257 2.5h1.486a3.5 3.5 0 0 1 3.44 2.855l.215 1.145H3.602l.215-1.145A3.5 3.5 0 0 1 7.257 2.5Z" stroke="#1B2837"/></svg>