<svg width="16" height="16" fill="none" xmlns="http://www.w3.org/2000/svg"><path d="M12.333 10h-.955A2.378 2.378 0 0 1 9 7.622c0-.75.56-1.383 1.305-1.475l.57-.07a5.124 5.124 0 0 1 1.25 0l.414.05A1.665 1.665 0 0 1 14 7.78v.553c0 .92-.746 1.667-1.667 1.667Zm-8.666 0h.955A2.378 2.378 0 0 0 7 7.622c0-.75-.56-1.383-1.305-1.475l-.57-.07a5.124 5.124 0 0 0-1.25 0l-.414.05A1.665 1.665 0 0 0 2 7.78v.553C2 9.253 2.746 10 3.667 10Z" stroke="#1B2837"/><path d="M14 7.5h1m-13 0H1" stroke="#1B2837" stroke-linecap="round"/><path d="M7 8h2" stroke="#1B2837"/><path d="M6.5 6.5h3" stroke="#1B2837" stroke-linecap="round"/></svg>