<svg width="24" height="24" fill="none" xmlns="http://www.w3.org/2000/svg"><g clip-path="url(#LIGHT/ICONS/24/Plane right__a)"><path d="M5 11c.602-.209 1.981-.5 3-.5h2.5L9.089 3.443A.37.37 0 0 1 9.452 3c.65 0 1.253.341 1.587.899L15 10.5h3.111a8 8 0 0 1 3.578.845l.238.118a.6.6 0 0 1 0 1.074l-.238.118a8 8 0 0 1-3.578.845H15l-3.96 6.601c-.335.558-.717.899-1.368.899-.233 0-.63-.214-.583-.443L10.5 13.5H8c-1.019 0-2.398-.291-3-.5l-1.12 1.866a2 2 0 0 1-1.082.868l-.107.036a.4.4 0 0 1-.514-.477L3 12l-.823-3.293a.4.4 0 0 1 .514-.477l.107.036a2 2 0 0 1 1.083.868L5 11Z" stroke="#1B2837"/></g><defs><clipPath id="LIGHT/ICONS/24/Plane right__a"><path fill="#fff" transform="rotate(-180 12 12)" d="M0 0h24v24H0z"/></clipPath></defs></svg>