<svg width="16" height="16" fill="none" xmlns="http://www.w3.org/2000/svg"><rect x="1.833" y="3.833" width="12.333" height="7.667" rx="1.5" stroke="#1B2837"/><mask id="LIGHT/ICONS/16/Boardingcard__a" fill="#fff"><circle cx="5.667" cy="5" r=".333"/></mask><path d="M5.6 5c0-.037.03-.067.067-.067v.8A.733.733 0 0 0 6.4 5h-.8Zm.067-.067c.036 0 .066.03.066.067h-.8c0 .405.329.733.734.733v-.8ZM5.733 5c0 .037-.03.066-.066.066v-.8A.733.733 0 0 0 4.933 5h.8Zm-.066.066A.067.067 0 0 1 5.6 5h.8a.733.733 0 0 0-.733-.734v.8Z" fill="#1B2837" mask="url(#LIGHT/ICONS/16/Boardingcard__a)"/><circle cx="5.667" cy="6.333" r=".2" stroke="#1B2837" stroke-width=".267"/><circle cx="5.667" cy="7.667" r=".2" stroke="#1B2837" stroke-width=".267"/><mask id="LIGHT/ICONS/16/Boardingcard__b" fill="#fff"><circle cx="5.667" cy="9" r=".333"/></mask><path d="M5.6 9c0-.037.03-.067.067-.067v.8A.733.733 0 0 0 6.4 9h-.8Zm.067-.067c.036 0 .066.03.066.067h-.8c0 .405.329.733.734.733v-.8ZM5.733 9c0 .037-.03.066-.066.066v-.8A.733.733 0 0 0 4.933 9h.8Zm-.066.066A.067.067 0 0 1 5.6 9h.8a.733.733 0 0 0-.733-.733v.8Z" fill="#1B2837" mask="url(#LIGHT/ICONS/16/Boardingcard__b)"/><mask id="LIGHT/ICONS/16/Boardingcard__c" fill="#fff"><circle cx="5.667" cy="10.333" r=".333"/></mask><path d="M5.6 10.333c0-.037.03-.066.067-.066v.8a.733.733 0 0 0 .733-.734h-.8Zm.067-.066c.036 0 .066.03.066.066h-.8c0 .405.329.734.734.734v-.8Zm.066.066c0 .037-.03.067-.066.067v-.8a.733.733 0 0 0-.734.733h.8Zm-.066.067a.067.067 0 0 1-.067-.067h.8a.733.733 0 0 0-.733-.733v.8Z" fill="#1B2837" mask="url(#LIGHT/ICONS/16/Boardingcard__c)"/></svg>