<svg width="24" height="24" fill="none" xmlns="http://www.w3.org/2000/svg"><path d="M22 22a3.8 3.8 0 0 0-.621-2.087 3.51 3.51 0 0 0-1.64-1.343l-4.374-1.546a.414.414 0 0 0-.277 0 .438.438 0 0 0-.22.176c-.32.49-.748.892-1.248 1.17-.5.277-1.056.423-1.622.423a3.338 3.338 0 0 1-1.622-.423c-.5-.278-.928-.68-1.247-1.17a.438.438 0 0 0-.221-.176.415.415 0 0 0-.277 0l-4.37 1.546a3.51 3.51 0 0 0-1.64 1.343A3.8 3.8 0 0 0 2 22m4.92-10.814c-.994-.46-1.246-2.31-.442-2.72-.637-3.915 1.8-6.471 5.54-6.463 3.727.008 6.138 2.565 5.503 6.462.804.412.555 2.259-.44 2.721a.923.923 0 0 0-.35.284.952.952 0 0 0-.179.419c-.41 2.49-3.271 4.11-4.552 4.11-1.281 0-4.145-1.62-4.553-4.11a.953.953 0 0 0-.178-.42.923.923 0 0 0-.35-.283Z" stroke="#1B2837" stroke-linecap="round" stroke-linejoin="round"/></svg>