<svg width="16" height="16" fill="none" xmlns="http://www.w3.org/2000/svg"><path d="m10.114 6.563 3.581 1.053a.4.4 0 0 1 0 .768l-3.58 1.053a1 1 0 0 0-.678.677l-1.053 3.581a.4.4 0 0 1-.768 0l-1.053-3.58a1 1 0 0 0-.677-.678L2.305 8.384a.4.4 0 0 1 0-.768l3.58-1.053a1 1 0 0 0 .678-.677l1.053-3.581a.4.4 0 0 1 .768 0l1.053 3.58a1 1 0 0 0 .677.678Z" stroke="#1B2837"/><path d="m5.5 4.5-1.463-.732a.2.2 0 0 0-.269.269L4.5 5.5m1 6-1.463.732a.2.2 0 0 1-.269-.269L4.5 10.5m7-5 .732-1.463a.2.2 0 0 0-.269-.269L10.5 4.5m1 6 .732 1.463a.2.2 0 0 1-.269.269L10.5 11.5" stroke="#1B2837" stroke-linecap="round"/></svg>