<svg width="48" height="48" fill="none" xmlns="http://www.w3.org/2000/svg"><path d="m25 23 1.5 1.5a2.121 2.121 0 0 0 3 0 2.121 2.121 0 0 1 3 0 2.121 2.121 0 0 0 3 0L37 23M9 28l1.125 1c.642.57 1.608.57 2.25 0a1.693 1.693 0 0 1 2.25 0c.642.57 1.608.57 2.25 0L18 28" stroke="#B6BCC4" stroke-width="2"/><path d="m19.852 32.1-5.467-10.414a1 1 0 0 0-1.77 0L3 40h13m13.211-26.422L16 40h30L32.789 13.578c-.737-1.474-2.84-1.474-3.578 0Z" stroke="#1B2837" stroke-width="2" stroke-linecap="round" stroke-linejoin="round"/><circle cx="18.5" cy="11.5" r="3.5" stroke="#1B2837" stroke-width="2"/></svg>