<svg width="16" height="16" fill="none" xmlns="http://www.w3.org/2000/svg"><path d="M4 8.5h8a2.5 2.5 0 0 1 2.45 2H1.55A2.5 2.5 0 0 1 4 8.5Zm10 4H2a.5.5 0 0 1-.5-.5v-1a.5.5 0 0 1 .5-.5h12a.5.5 0 0 1 .5.5v1a.5.5 0 0 1-.5.5Zm-10 0a.5.5 0 1 1 0 1 .5.5 0 0 1 0-1Zm8 0a.5.5 0 1 1 0 1 .5.5 0 0 1 0-1Z" stroke="#1B2837"/><path d="M3 3.5h10a.5.5 0 0 1 .5.5v4.5h-11V4a.5.5 0 0 1 .5-.5Z" stroke="#1B2837"/><path d="M5.333 7.167H6c.46 0 .833.373.833.833a.167.167 0 0 1-.166.166h-2A.167.167 0 0 1 4.5 8c0-.46.373-.833.833-.833Zm4.667 0h.667c.46 0 .833.373.833.833a.167.167 0 0 1-.167.166h-2A.167.167 0 0 1 9.167 8c0-.46.373-.833.833-.833Z" stroke="#1B2837"/></svg>