<svg width="48" height="48" fill="none" xmlns="http://www.w3.org/2000/svg"><path d="m24 12 4-4m-4 4-4-4" stroke="#B6BCC4" stroke-width="2" stroke-linecap="round"/><path d="M24 20V5" stroke="#1B2837" stroke-width="2" stroke-linecap="round" stroke-linejoin="round"/><path d="m24 20 3 3m-3-3-3 3" stroke="#1B2837" stroke-width="2" stroke-linecap="round"/><path d="m24 34-4 4m4-4 4 4" stroke="#B6BCC4" stroke-width="2" stroke-linecap="round"/><path d="M24 26v15" stroke="#1B2837" stroke-width="2" stroke-linecap="round" stroke-linejoin="round"/><path d="m24 26-3-3m3 3 3-3" stroke="#1B2837" stroke-width="2" stroke-linecap="round"/><path d="m35 23 4 4m-4-4 4-4" stroke="#B6BCC4" stroke-width="2" stroke-linecap="round"/><path d="M27 23h15" stroke="#1B2837" stroke-width="2" stroke-linecap="round" stroke-linejoin="round"/><path d="m27 23-3 3m3-3-3-3" stroke="#1B2837" stroke-width="2" stroke-linecap="round"/><path d="m13 23-4-4m4 4-4 4" stroke="#B6BCC4" stroke-width="2" stroke-linecap="round"/><path d="M21 23H6" stroke="#1B2837" stroke-width="2" stroke-linecap="round" stroke-linejoin="round"/><path d="m21 23 3-3m-3 3 3 3" stroke="#1B2837" stroke-width="2" stroke-linecap="round"/><path d="M31.778 30.778v5.657m0-5.657h5.657" stroke="#B6BCC4" stroke-width="2" stroke-linecap="round"/><path d="m26.121 25.121 10.607 10.607" stroke="#1B2837" stroke-width="2" stroke-linecap="round" stroke-linejoin="round"/><path d="M26.121 25.121H21.88m4.241 0V20.88" stroke="#1B2837" stroke-width="2" stroke-linecap="round"/><path d="M16.222 15.222V9.565m0 5.657h-5.657" stroke="#B6BCC4" stroke-width="2" stroke-linecap="round"/><path d="M21.879 20.879 11.272 10.272" stroke="#1B2837" stroke-width="2" stroke-linecap="round" stroke-linejoin="round"/><path d="M21.879 20.879h4.242m-4.242 0v4.242" stroke="#1B2837" stroke-width="2" stroke-linecap="round"/><path d="M16.222 30.778h-5.657m5.657 0v5.657" stroke="#B6BCC4" stroke-width="2" stroke-linecap="round"/><path d="M21.879 25.121 11.272 35.728" stroke="#1B2837" stroke-width="2" stroke-linecap="round" stroke-linejoin="round"/><path d="M21.879 25.121V20.88m0 4.241h4.242" stroke="#1B2837" stroke-width="2" stroke-linecap="round"/><path d="M31.778 15.222h5.657m-5.657 0V9.565" stroke="#B6BCC4" stroke-width="2" stroke-linecap="round"/><path d="m26.12 20.878 10.607-10.606" stroke="#1B2837" stroke-width="2" stroke-linecap="round" stroke-linejoin="round"/><path d="M26.12 20.878v4.243m0-4.243h-4.242" stroke="#1B2837" stroke-width="2" stroke-linecap="round"/></svg>