<svg width="16" height="16" fill="none" xmlns="http://www.w3.org/2000/svg"><path d="M8 11.334v-4m2 2-2 2-2-2" stroke="#1B2837" stroke-linecap="round" stroke-linejoin="round"/><path d="M2 12V5a1 1 0 0 1 1-1h2.267c.184 0 .333.15.333.333 0 .737.597 1.334 1.333 1.334h2.134c.736 0 1.333-.597 1.333-1.334 0-.184.15-.333.333-.333H13a1 1 0 0 1 1 1v7a2 2 0 0 1-2 2H4a2 2 0 0 1-2-2Z" stroke="#1B2837"/><path d="M4 4V3a1 1 0 0 1 1-1h1c.368 0 .667.298.667.667a1.333 1.333 0 0 0 2.667 0c0-.369.298-.667.666-.667h1a1 1 0 0 1 1 1v1" stroke="#1B2837"/></svg>