<svg width="24" height="24" fill="none" xmlns="http://www.w3.org/2000/svg"><mask id="LIGHT/ICONS/24/Settings__a" fill="#fff"><path fill-rule="evenodd" clip-rule="evenodd" d="M12.485 2C13.322 2 14 2.678 14 3.515l.001.068c.02.495.489.796.95.979.074.03.148.06.222.092.455.197.998.315 1.363-.02a1.63 1.63 0 0 0 .05-.048 1.515 1.515 0 0 1 2.142 0l.686.686c.592.592.592 1.55 0 2.142a1.597 1.597 0 0 0-.048.05c-.335.365-.217.908-.02 1.363.032.074.063.148.092.222.183.461.484.93.98.95l.067.001c.837 0 1.515.678 1.515 1.515v.97c0 .837-.678 1.515-1.515 1.515l-.067.001c-.496.02-.797.489-.98.95-.03.074-.06.148-.092.222-.197.455-.315.998.02 1.363l.048.05c.592.591.592 1.55 0 2.142l-.686.686a1.515 1.515 0 0 1-2.142 0 1.838 1.838 0 0 0-.05-.048c-.365-.335-.908-.217-1.363-.02a8.14 8.14 0 0 1-.222.092c-.461.183-.93.484-.95.98l-.001.067c0 .837-.678 1.515-1.515 1.515h-.97A1.515 1.515 0 0 1 10 20.485l-.001-.067c-.02-.496-.489-.797-.95-.98a8.117 8.117 0 0 1-.222-.092c-.455-.197-.998-.315-1.363.02a1.715 1.715 0 0 0-.05.048 1.515 1.515 0 0 1-2.142 0l-.686-.686a1.515 1.515 0 0 1 0-2.142 1.76 1.76 0 0 0 .048-.05c.335-.365.217-.908.02-1.363a7.829 7.829 0 0 1-.092-.222c-.183-.461-.484-.93-.98-.95L3.516 14A1.515 1.515 0 0 1 2 12.485v-.97C2 10.678 2.678 10 3.515 10l.067-.001c.496-.02.797-.489.98-.95.03-.074.06-.148.092-.222.197-.455.315-.998-.02-1.363a1.65 1.65 0 0 0-.048-.05 1.515 1.515 0 0 1 0-2.142l.686-.686a1.515 1.515 0 0 1 2.142 0l.05.048c.365.335.908.217 1.363.02.074-.032.148-.063.222-.092.461-.183.93-.484.95-.98L10 3.516C10 2.678 10.678 2 11.515 2h.97Z"/></mask><path d="m16.586 4.586-.707-.707.707.707Zm2.142 0 .707-.707-.707.707Zm.686.686-.707.707.707-.707Zm0 2.142.707.707-.707-.707Zm0 9.172.707-.707-.707.707Zm-2.828 2.828.707-.707-.707.707Zm-9.172 0-.707-.707.707.707Zm-2.142 0-.707.707.707-.707Zm-.686-.686.707-.707-.707.707Zm0-2.142-.707-.707.707.707Zm0-9.172-.707.707.707-.707Zm.686-2.828-.707-.707.707.707Zm2.142 0-.707.707.707-.707Zm1.635-.024-.369-.93.37.93Zm.95-.98-1-.04 1 .04Zm-6.416 10.42L3.54 15l.042-.999Zm5.244 5.344.397-.918-.397.918Zm-1.363.02.677.736-.677-.736ZM19.438 9.05l-.93.37.93-.37Zm.98.95.04-1-.04 1ZM4.634 16.536l-.736-.677.736.677Zm10.317 2.902-.37-.93.37.93Zm-5.902 0-.369.93.37-.93Zm-5.467-9.44L3.542 9l.04 1Zm.98-.949-.93-.369.93.37Zm14.784 6.124.918.397-.918-.397Zm.02 1.363.736-.677-.736.677Zm1.052-2.535-.041-.999.04 1Zm-.98.95-.93-.37.93.37Zm-2.902 4.415.677-.735-.677.735Zm-1.363-.02-.397-.918.397.918Zm4.193-11.882.736.677-.736-.677Zm-.02 1.363-.918.397.918-.397Zm-5.345-5.244-.999.04 1-.04ZM15 3.515A2.515 2.515 0 0 0 12.485 1v2c.285 0 .515.23.515.515h2Zm0 .026v-.026h-2a2 2 0 0 0 .002.109L15 3.54Zm-.418 1.95a6.9 6.9 0 0 1 .194.08l.794-1.835a8.948 8.948 0 0 0-.25-.104l-.738 1.86Zm1.297-1.612a.632.632 0 0 1-.02.019l1.354 1.472c.027-.025.054-.05.08-.077l-1.414-1.414Zm3.556 0a2.515 2.515 0 0 0-3.556 0l1.414 1.414a.515.515 0 0 1 .728 0l1.414-1.414Zm.686.686-.686-.686-1.414 1.414.686.686 1.414-1.414Zm0 3.556a2.515 2.515 0 0 0 0-3.556l-1.414 1.414a.515.515 0 0 1 0 .728l1.414 1.414Zm-.019.02a.695.695 0 0 1 .02-.02l-1.415-1.414a2.638 2.638 0 0 0-.076.08l1.471 1.354Zm-1.674 1.083c.028.064.055.13.08.194l1.86-.738a8.719 8.719 0 0 0-.104-.25l-1.836.794ZM20.485 9h-.026l-.082 1.998.108.002V9ZM23 11.515A2.515 2.515 0 0 0 20.485 9v2c.285 0 .515.23.515.515h2Zm0 .97v-.97h-2v.97h2ZM20.485 15A2.515 2.515 0 0 0 23 12.485h-2c0 .285-.23.515-.515.515v2Zm-.026 0h.026v-2c-.036 0-.072 0-.108.002L20.459 15Zm-1.95-.418a7.18 7.18 0 0 1-.08.194l1.835.794c.036-.083.07-.166.104-.25l-1.86-.738Zm1.612 1.297a.564.564 0 0 1-.018-.02l-1.473 1.354c.025.027.05.054.077.08l1.414-1.414Zm0 3.556a2.515 2.515 0 0 0 0-3.556l-1.414 1.414a.515.515 0 0 1 0 .728l1.414 1.414Zm-.686.686.686-.686-1.414-1.414-.686.686 1.414 1.414Zm-3.556 0a2.515 2.515 0 0 0 3.556 0l-1.414-1.414a.515.515 0 0 1-.728 0l-1.414 1.414Zm-.02-.019a.675.675 0 0 1 .02.02l1.414-1.415a2.858 2.858 0 0 0-.08-.076l-1.354 1.471Zm-1.083-1.674a7.18 7.18 0 0 1-.194.08l.738 1.86c.084-.034.167-.068.25-.104l-.794-1.836ZM15 20.485v-.026l-1.998-.082a2.607 2.607 0 0 0-.002.108h2ZM12.485 23A2.515 2.515 0 0 0 15 20.485h-2c0 .285-.23.515-.515.515v2Zm-.97 0h.97v-2h-.97v2ZM9 20.485A2.515 2.515 0 0 0 11.515 23v-2a.515.515 0 0 1-.515-.515H9Zm0-.026v.026h2c0-.036 0-.072-.002-.108l-1.999.082Zm.418-1.95a7.223 7.223 0 0 1-.194-.08l-.794 1.835c.083.036.166.07.25.104l.738-1.86ZM8.121 20.12a.695.695 0 0 1 .02-.019L6.787 18.63c-.027.024-.054.05-.08.076l1.414 1.414Zm-3.556 0a2.515 2.515 0 0 0 3.556 0l-1.414-1.414a.515.515 0 0 1-.728 0L4.565 20.12Zm-.686-.686.686.686 1.414-1.414-.686-.686-1.414 1.414Zm0-3.556a2.515 2.515 0 0 0 0 3.556l1.414-1.414a.515.515 0 0 1 0-.728l-1.414-1.414Zm.019-.02a.653.653 0 0 1-.02.02l1.415 1.414.077-.08-1.472-1.354Zm1.674-1.083a6.9 6.9 0 0 1-.08-.194l-1.86.738c.034.084.068.167.104.25l1.836-.794ZM3.515 15h.026l.083-1.998a2.624 2.624 0 0 0-.11-.002v2ZM1 12.485A2.515 2.515 0 0 0 3.515 15v-2A.515.515 0 0 1 3 12.485H1Zm0-.97v.97h2v-.97H1ZM3.515 9A2.515 2.515 0 0 0 1 11.515h2c0-.285.23-.515.515-.515V9Zm.026 0h-.026v2c.036 0 .072 0 .108-.002l-.082-1.999Zm1.95.418.08-.194-1.835-.794c-.036.083-.07.166-.104.25l1.86.738ZM3.88 8.121a.666.666 0 0 1 .019.02L5.37 6.787a2.657 2.657 0 0 0-.077-.08L3.879 8.121Zm0-3.556a2.515 2.515 0 0 0 0 3.556l1.414-1.414a.515.515 0 0 1 0-.728L3.879 4.565Zm.686-.686-.686.686 1.414 1.414.686-.686-1.414-1.414Zm3.556 0a2.515 2.515 0 0 0-3.556 0L5.98 5.293a.515.515 0 0 1 .728 0l1.414-1.414Zm.02.018a.656.656 0 0 1-.02-.018L6.707 5.293l.08.077 1.354-1.473Zm1.083 1.675c.064-.028.13-.055.194-.08l-.738-1.86a8.924 8.924 0 0 0-.25.104l.794 1.836ZM9 3.515v.026l1.998.083.002-.11H9ZM11.515 1A2.515 2.515 0 0 0 9 3.515h2c0-.285.23-.515.515-.515V1Zm.97 0h-.97v2h.97V1ZM9.418 5.491c.283-.112.639-.286.941-.56.317-.285.615-.72.639-1.307L8.999 3.54a.23.23 0 0 1 .026-.094c.011-.02.015-.02-.006 0a.7.7 0 0 1-.122.084c-.06.034-.133.068-.217.101l.738 1.86ZM5.572 9.224c.12-.28.25-.654.27-1.06.022-.426-.074-.944-.472-1.377L3.898 8.141a.23.23 0 0 1-.05-.085c-.006-.022-.002-.025-.003.004a.7.7 0 0 1-.027.145 1.775 1.775 0 0 1-.082.225l1.836.794Zm-.08 5.358a3.128 3.128 0 0 0-.56-.941c-.286-.317-.72-.615-1.308-.639L3.54 15a.229.229 0 0 1-.094-.025c-.02-.011-.02-.015 0 .006.02.022.05.06.084.122.034.06.068.133.101.217l1.86-.738Zm3.732 3.846c-.28-.12-.654-.25-1.06-.27-.426-.022-.944.074-1.377.473l1.354 1.471a.228.228 0 0 1-.085.05c-.022.006-.025.002.004.003a.78.78 0 0 1 .145.027c.068.02.143.047.225.082l.794-1.836Zm9.285-9.01c.112.283.286.639.56.941.285.317.72.615 1.308.639l.082-1.999a.23.23 0 0 1 .094.026c.02.01.02.015 0-.006a.703.703 0 0 1-.084-.122 1.778 1.778 0 0 1-.101-.217l-1.86.738Zm-13.14 7.795c.399-.433.495-.95.473-1.376a3.125 3.125 0 0 0-.27-1.061l-1.836.794c.035.082.063.157.081.224a.7.7 0 0 1 .028.146c.001.029-.003.026.004.004a.23.23 0 0 1 .049-.085l1.472 1.354ZM6.788 5.37c.433.398.951.494 1.377.472a3.15 3.15 0 0 0 1.06-.27L8.43 3.736a1.775 1.775 0 0 1-.224.081.7.7 0 0 1-.146.028c-.028.001-.026-.003-.004.004a.23.23 0 0 1 .085.048L6.787 5.37Zm7.795 13.139a3.128 3.128 0 0 0-.941.56c-.317.285-.615.72-.639 1.308l1.998.082a.23.23 0 0 1-.025.094c-.01.02-.015.02.006 0a.705.705 0 0 1 .122-.084 1.78 1.78 0 0 1 .217-.101l-.738-1.86Zm.194-12.937c.28.12.654.25 1.06.27.426.022.944-.074 1.377-.472L15.86 3.898a.23.23 0 0 1 .085-.05c.022-.006.024-.002-.004-.003a.7.7 0 0 1-.146-.028 1.775 1.775 0 0 1-.224-.081l-.794 1.836Zm-3.778 14.805c-.024-.588-.322-1.023-.639-1.309a3.126 3.126 0 0 0-.94-.56l-.739 1.86c.084.033.156.067.217.101a.72.72 0 0 1 .122.084c.021.02.017.02.006 0A.23.23 0 0 1 9 20.458l1.999-.081Zm-7.375-9.38c.588-.023 1.023-.321 1.309-.638.273-.302.447-.658.56-.94l-1.86-.739a1.777 1.777 0 0 1-.101.217.7.7 0 0 1-.084.122c-.02.021-.02.017 0 .006a.23.23 0 0 1 .094-.026l.082 1.999Zm14.805 3.779c-.12.28-.25.654-.27 1.06-.022.426.074.944.473 1.377l1.471-1.354a.23.23 0 0 1 .05.085c.006.022.002.024.003-.004a.698.698 0 0 1 .027-.146c.02-.067.047-.142.082-.224l-1.836-.794Zm1.948-1.774c-.587.024-1.022.322-1.308.639a3.127 3.127 0 0 0-.56.94l1.86.739c.033-.084.067-.156.101-.217a.705.705 0 0 1 .084-.122c.02-.021.02-.017 0-.006a.228.228 0 0 1-.095.026l-.081-1.999Zm-3.163 5.629c-.433-.399-.95-.495-1.376-.473a3.12 3.12 0 0 0-1.061.27l.794 1.836c.082-.035.157-.063.224-.081a.707.707 0 0 1 .146-.028c.029-.001.026.003.004-.004a.227.227 0 0 1-.085-.049l1.354-1.471Zm1.418-11.844c-.399.433-.495.95-.473 1.376.02.407.15.782.27 1.061l1.836-.794a1.775 1.775 0 0 1-.081-.225.7.7 0 0 1-.028-.145c-.001-.029.003-.026-.004-.004a.227.227 0 0 1-.049.085l-1.471-1.354Zm-5.629-3.163c.024.587.322 1.022.639 1.308.302.273.658.447.94.56l.739-1.86a1.778 1.778 0 0 1-.217-.101.703.703 0 0 1-.122-.084c-.021-.02-.017-.02-.006 0 .013.025.024.06.026.095l-1.999.082Z" fill="#1B2837" mask="url(#LIGHT/ICONS/24/Settings__a)"/><circle cx="12" cy="12" r="3.5" stroke="#1B2837"/></svg>