<svg width="16" height="16" fill="none" xmlns="http://www.w3.org/2000/svg"><circle cx="10.5" cy="9.5" r="1" stroke="#1B2837"/><circle cx="10.5" cy="9.5" r="3" stroke="#1B2837"/><rect x=".5" y="4.5" width="15" height="9" rx=".5" stroke="#1B2837"/><path d="M.6 4.5h3.8a.1.1 0 0 1 .1.1 1.9 1.9 0 0 1-1.9 1.9h-.2A1.9 1.9 0 0 1 .5 4.6a.1.1 0 0 1 .1-.1ZM5 5v9m3.326-9.5h4.348a.5.5 0 0 0 .481-.637l-.428-1.5A.5.5 0 0 0 12.245 2H8.754a.5.5 0 0 0-.48.363l-.429 1.5a.5.5 0 0 0 .48.637Z" stroke="#1B2837"/><rect x="4.5" y="3.5" width="2" height="1" rx=".5" stroke="#1B2837"/></svg>