<svg width="24" height="64" fill="none" xmlns="http://www.w3.org/2000/svg"><path d="M12 1v62" stroke="#fff" stroke-width="2" stroke-linecap="round" stroke-dasharray="1 6"/><g clip-path="url(#Dotted Line with Plane__a)"><path d="M13 25c.209.602.5 1.982.5 3v2.5l7.057-1.411a.37.37 0 0 1 .443.363 1.85 1.85 0 0 1-.899 1.587L13.5 35v3.111a8 8 0 0 1-.845 3.578l-.118.238a.6.6 0 0 1-1.074 0l-.118-.238a8 8 0 0 1-.845-3.578V35l-6.601-3.96C3.34 30.704 3 30.322 3 29.671c0-.233.214-.63.443-.583L10.5 30.5V28c0-1.018.291-2.398.5-3l-1.866-1.12a2 2 0 0 1-.868-1.082l-.036-.107a.4.4 0 0 1 .477-.514L12 23l3.293-.823a.4.4 0 0 1 .477.514l-.036.107a2 2 0 0 1-.868 1.083L13 25Z" fill="#fff"/></g><defs><clipPath id="Dotted Line with Plane__a"><path fill="#fff" transform="rotate(-90 22 22)" d="M0 0h24v24H0z"/></clipPath></defs></svg>