<svg width="24" height="24" fill="none" xmlns="http://www.w3.org/2000/svg"><path d="m15.023 9.654 6.672 1.962a.4.4 0 0 1 0 .768l-6.672 1.962a1 1 0 0 0-.677.677l-1.962 6.672a.4.4 0 0 1-.768 0l-1.962-6.672a1 1 0 0 0-.677-.677l-6.672-1.962a.4.4 0 0 1 0-.768l6.672-1.962a1 1 0 0 0 .677-.677l1.962-6.672a.4.4 0 0 1 .768 0l1.962 6.672a1 1 0 0 0 .677.677Z" stroke="#1B2837"/><path d="m8.5 17.5-3.04 1.303a.2.2 0 0 1-.263-.263L6.5 15.5m9-9 3.04-1.303a.2.2 0 0 1 .263.263L17.5 8.5m0 7 1.303 3.04a.2.2 0 0 1-.263.263L15.5 17.5m-7-11L5.46 5.197a.2.2 0 0 0-.263.263L6.5 8.5" stroke="#1B2837" stroke-linecap="round"/></svg>