<svg width="24" height="24" fill="none" xmlns="http://www.w3.org/2000/svg"><path d="M19 16h2a1 1 0 0 0 1-1V8a1 1 0 0 0-1-1H3a1 1 0 0 0-1 1v7a1 1 0 0 0 1 1h2" stroke="#1B2837" stroke-linecap="round"/><path d="m20 7-.544 1.632A2 2 0 0 1 17.558 10H6.442a2 2 0 0 1-1.898-1.368L4 7m1 6h11m2 0h1M9 16l-1 .667A.801.801 0 0 0 8 18v0a.801.801 0 0 1 0 1.333L7 20m6-4-1 .667A.801.801 0 0 0 12 18v0a.801.801 0 0 1 0 1.333L11 20m6-4-1 .667A.801.801 0 0 0 16 18v0a.801.801 0 0 1 0 1.333L15 20" stroke="#1B2837" stroke-linecap="round"/></svg>