<svg width="48" height="48" fill="none" xmlns="http://www.w3.org/2000/svg"><path d="m40 24 1.8-2.4A4 4 0 0 1 45 20h1a1 1 0 0 1 1 1v2a1 1 0 0 1-1 1h-6ZM8 24l-1.8-2.4A4 4 0 0 0 3 20H2a1 1 0 0 0-1 1v2a1 1 0 0 0 1 1h6Zm12 10h8" stroke="#B6BCC4" stroke-width="2" stroke-linecap="round" stroke-linejoin="round"/><path d="M15 3h18a7 7 0 0 1 7 7v29a1 1 0 0 1-1 1H9a1 1 0 0 1-1-1V10a7 7 0 0 1 7-7ZM8 25h32m-16-.5V3" stroke="#1B2837" stroke-width="2"/><circle cx="14.5" cy="33.5" r="2.5" stroke="#B6BCC4" stroke-width="2"/><circle cx="33.5" cy="33.5" r="2.5" stroke="#B6BCC4" stroke-width="2"/><path d="M10 40h6v3a3 3 0 1 1-6 0v-3Zm22 0h6v3a3 3 0 1 1-6 0v-3Z" stroke="#1B2837" stroke-width="2"/></svg>