<svg width="24" height="24" fill="none" xmlns="http://www.w3.org/2000/svg"><path d="m20 10 .6-.8A3 3 0 0 1 23 8v0a.5.5 0 0 1 .5.5v1a.5.5 0 0 1-.5.5h-3ZM4 10l-.6-.8A3 3 0 0 0 1 8v0a.5.5 0 0 0-.5.5v1a.5.5 0 0 0 .5.5h3Z" stroke="#1B2837" stroke-linecap="round" stroke-linejoin="round"/><path d="M4.5 10.5c-2.2 1.4-2 4.75-2 6.5h8m8.5-6.5c2.2 1.4 2.5 4.75 2.5 6.5h-11" stroke="#1B2837"/><circle cx="6.75" cy="13.75" r="1.25" stroke="#1B2837"/><circle cx="17.25" cy="13.75" r="1.25" stroke="#1B2837"/><path d="M4.5 17h3v1a1.5 1.5 0 0 1-3 0v-1Zm12 0h3v1a1.5 1.5 0 0 1-3 0v-1ZM8.82 3.5h6.36a3.5 3.5 0 0 1 3.44 2.855l.777 4.145H4.603l.778-4.145A3.5 3.5 0 0 1 8.82 3.5Z" stroke="#1B2837"/></svg>