<svg width="16" height="16" fill="none" xmlns="http://www.w3.org/2000/svg"><circle cx="9" cy="7" r="4.5" stroke="#1B2837"/><path d="M13.256 11.256a6.19 6.19 0 1 1-8.754-8.754" stroke="#1B2837"/><path d="M4.854 2.146a.5.5 0 1 0-.708.708l.708-.708Zm1.5 1.5-1.5-1.5-.708.708 1.5 1.5.708-.708Zm7.792 8.708a.5.5 0 0 0 .708-.708l-.708.708Zm-1.292-2.708a.5.5 0 0 0-.708.708l.708-.708Zm2 2-2-2-.708.708 2 2 .708-.708Z" fill="#1B2837"/><path d="M9 13v2" stroke="#1B2837"/><path d="M6 15h6" stroke="#1B2837" stroke-linecap="round"/></svg>