<svg width="16" height="16" fill="none" xmlns="http://www.w3.org/2000/svg"><g clip-path="url(#LIGHT/ICONS/16/Plane right__a)"><path d="M3 7.333C3.401 7.194 4.321 7 5 7h1.667l-.941-4.705A.247.247 0 0 1 5.968 2c.433 0 .835.227 1.058.6L9.666 7h1.967c.899 0 1.786.21 2.59.611.32.16.32.617 0 .778a5.792 5.792 0 0 1-2.59.611H9.667l-2.64 4.4c-.224.373-.479.6-.912.6-.156 0-.42-.143-.39-.295L6.668 9H5c-.679 0-1.599-.194-2-.333l-.727 1.211a1.436 1.436 0 0 1-.777.623.287.287 0 0 1-.37-.342L1.667 8l-.54-2.16a.287.287 0 0 1 .37-.341c.325.108.6.33.777.623L3 7.333Z" stroke="#1B2837"/></g><defs><clipPath id="LIGHT/ICONS/16/Plane right__a"><path fill="#fff" transform="rotate(-180 8 8)" d="M0 0h16v16H0z"/></clipPath></defs></svg>