<svg width="16" height="16" fill="none" xmlns="http://www.w3.org/2000/svg"><path d="m13 13.5.828-3.617a1 1 0 0 0-.512-1.11L8.463 6.241a1 1 0 0 0-.926 0L2.684 8.773a1 1 0 0 0-.512 1.11L3 13.5" stroke="#1B2837" stroke-linecap="round"/><path d="m15 13.875-.31-.447a1.113 1.113 0 0 0-1.872.067v0a1.113 1.113 0 0 1-1.877.06l-.075-.108a1.197 1.197 0 0 0-1.976 0l-.036.053a1.24 1.24 0 0 1-2.05 0l-.075-.112a1.148 1.148 0 0 0-1.897 0l-.164.242a.976.976 0 0 1-1.68-.114v0a.976.976 0 0 0-1.689-.098L1 13.875" stroke="#1B2837" stroke-linecap="round"/><path d="m13 8.5-1.736-3.906A1 1 0 0 0 10.35 4h-4.7a1 1 0 0 0-.914.594L3 8.5M8 4V2.667M9 3H7a1 1 0 0 1 0-2h2a1 1 0 0 1 0 2Z" stroke="#1B2837"/><path d="M8 8.666V12" stroke="#1B2837" stroke-linecap="round"/></svg>