<svg width="48" height="48" fill="none" xmlns="http://www.w3.org/2000/svg"><circle cx="8" cy="41" r="4" stroke="#B6BCC4" stroke-width="2"/><circle cx="42" cy="41" r="4" stroke="#B6BCC4" stroke-width="2"/><path d="M15 41a7 7 0 1 0-14 0" stroke="#1B2837" stroke-width="2" stroke-linecap="round"/><path d="M8 41h22.89a4 4 0 0 0 3.301-1.741L39.5 31.5m6.508 3.814C44.224 33.97 42.505 33.47 40.5 34" stroke="#1B2837" stroke-width="2" stroke-linecap="round"/><path d="M41.028 41.233a1 1 0 0 0 1.944-.466l-1.944.466ZM33 3.5v-1a1 1 0 0 0-.972 1.233L33 3.5Zm9.972 37.267-9-37.5-1.944.466 9 37.5 1.944-.466ZM33 4.5h3.5v-2H33v2Z" fill="#1B2837"/><path d="m35 11 3 12.5h.463a2 2 0 0 0 1.945-2.467l-2.04-8.5A2 2 0 0 0 36.423 11H35Z" stroke="#1B2837" stroke-width="2"/></svg>