<svg width="24" height="24" fill="none" xmlns="http://www.w3.org/2000/svg"><path d="M18.333 15h-1.155A4.178 4.178 0 0 1 13 10.822a2.61 2.61 0 0 1 2.263-2.588l.658-.089a8.089 8.089 0 0 1 2.158 0l.445.06A2.857 2.857 0 0 1 21 11.036v1.297A2.667 2.667 0 0 1 18.333 15ZM5.667 15h1.155A4.178 4.178 0 0 0 11 10.822a2.611 2.611 0 0 0-2.263-2.588l-.658-.089a8.089 8.089 0 0 0-2.158 0l-.445.06A2.857 2.857 0 0 0 3 11.036v1.297A2.667 2.667 0 0 0 5.667 15Z" stroke="#1B2837"/><path d="M21 11.5h1m-19 0H2" stroke="#1B2837" stroke-linecap="round"/><path d="M11 11h2" stroke="#1B2837"/><path d="M10.5 9h3" stroke="#1B2837" stroke-linecap="round"/></svg>