<svg width="24" height="24" fill="none" xmlns="http://www.w3.org/2000/svg"><path d="m19.5 20.5 1.338-6.242a1 1 0 0 0-.53-1.104l-7.86-3.93a1 1 0 0 0-.895 0l-7.86 3.93a1 1 0 0 0-.53 1.104L4.5 20.5" stroke="#1B2837" stroke-linecap="round"/><path d="m22.5 21.5-.462-.607a1.673 1.673 0 0 0-2.734.1v0a1.673 1.673 0 0 1-2.74.092l-.117-.156a1.809 1.809 0 0 0-2.894 0L13.5 21c-.75 1-2.25 1-3 0l-.112-.15a1.735 1.735 0 0 0-2.776 0l-.257.344a1.457 1.457 0 0 1-2.443-.172v0a1.457 1.457 0 0 0-2.46-.15L2 21.5" stroke="#1B2837" stroke-linecap="round"/><path d="m19 12.5-2.54-5.896A1 1 0 0 0 15.542 6H8.458a1 1 0 0 0-.918.604L5 12.5M12 6V4m1 0h-2a1 1 0 1 1 0-2h2a1 1 0 1 1 0 2Z" stroke="#1B2837"/><path d="M12 13v5" stroke="#1B2837" stroke-linecap="round"/></svg>