<svg width="238" height="385" fill="none" xmlns="http://www.w3.org/2000/svg">
  <path d="M118.465 118.66c-7.978 0-14.493-6.504-14.493-14.467v-3.717c0-7.963 6.515-14.467 14.493-14.467 7.978 0 14.494 6.504 14.494 14.467v3.717c.133 7.963-6.383 14.467-14.494 14.467z" stroke="#DBE8EB" stroke-width="3" stroke-miterlimit="10"/>
  <path d="M118.465 84.416a13.38 13.38 0 0013.43 13.406h9.605" stroke="#DBE8EB" stroke-width="3" stroke-miterlimit="10" stroke-linecap="round"/>
  <path d="M118.465 84.416a13.38 13.38 0 01-13.429 13.406H96" stroke="#DBE8EB" stroke-width="3" stroke-miterlimit="10" stroke-linecap="round"/>
  <path d="M118.465 85.876V59.994" stroke="#DBE8EB" stroke-width="3" stroke-miterlimit="10"/>
  <path d="M123.651 86.805l9.042-17.653m-2.659 22.298l9.706-8.362m-30.449 18.654l9.308-3.451 9.573 3.451m-9.707 5.309v-8.23m0-12.945V59.994m-5.185 26.811l-8.909-17.653m2.659 22.298l-9.707-8.362" stroke="#DBE8EB" stroke-width="3" stroke-miterlimit="10" stroke-linecap="round"/>
  <path d="M152.77 165.646v-26.148c0-7.034-4.786-12.874-10.504-12.874h-35.768c-8.909 0-16.222-7.3-16.222-16.193v-60.79H74.453v79.903a9.809 9.809 0 009.84 9.822v151.709" stroke="#DBE8EB" stroke-width="3" stroke-miterlimit="10"/>
  <path d="M152.771 203.076v26.413c0 8.893-7.313 16.193-16.222 16.193-6.25 0-11.302 5.044-11.302 11.282 0 3.053-2.527 5.575-5.585 5.575h-7.845a9.525 9.525 0 00-9.574 9.556v1.195c0 9.822-7.977 17.785-17.817 17.785h-6.914V170.823c0-9.291 7.446-16.724 16.754-16.724h17.418c13.829 0 24.998-11.15 24.998-24.953V92.778c0-9.955-8.111-18.051-18.084-18.051-9.972 0-18.083 8.096-18.083 18.05v32.785" stroke="#DBE8EB" stroke-width="3" stroke-miterlimit="10"/>
  <path d="M90.144 91.45c0 8.761-7.18 15.928-15.956 15.928-3.59 0-6.516 2.92-6.516 6.504v17.387c0 9.026 7.314 16.459 16.488 16.459v20.175M84 315v-24m10 24v-27m10 27v-48m10 48v-51m9 51v-53m10 53v-68m10 68v-70m9.771 69.436v-84.682M76.847 13.671c0 3.053 2.526 5.575 5.584 5.575 3.059 0 5.585-2.522 5.585-5.575 0-2.389-.665-7.433-5.585-10.22 0 6.37-5.584 5.84-5.584 10.22zm7.446 265.326v-26.811h3.989c14.759 0 26.859-11.946 26.859-26.812a12.19 12.19 0 0112.233-12.211c13.961 0 25.396-11.282 25.396-25.351M75.916 30.262l6.117 30.528h.531l6.117-30.528-2.26-4.645h-8.112l-2.393 4.645z" stroke="#DBE8EB" stroke-width="3" stroke-miterlimit="10"/>
  <path d="M100.781 144.542v9.689m17.285-17.653v16.326" stroke="#DBE8EB" stroke-width="3" stroke-miterlimit="10" stroke-linecap="round"/>
  <path d="M166.201 315.365H67.407v10.618H166.2v-10.618zm16.372 34.153V326H52v23.136" stroke="#DBE8EB" stroke-width="3" stroke-miterlimit="10" stroke-linejoin="round"/>
  <path d="M184.792 158.568l-19.94-12.727-19.913 31.087 19.94 12.727 19.913-31.087zm-32.021 23.802v24.024m9.839-57.074l-9.839-12.476m0 66.232a12.19 12.19 0 0012.232-12.211v-1.327" stroke="#DBE8EB" stroke-width="3" stroke-miterlimit="10"/>
  <path d="M176.571 171.354l-2.26 3.45c-1.197 1.859-3.59 2.39-5.319 1.195-1.861-1.195-2.393-3.584-1.196-5.309l2.26-3.451c1.197-1.858 3.59-2.389 5.319-1.195 1.861 1.195 2.393 3.584 1.196 5.31zM89.213 49.773H75.517a4.763 4.763 0 01-4.787-4.778 4.763 4.763 0 014.787-4.778h13.696a4.763 4.763 0 014.786 4.778c0 2.522-2.127 4.778-4.786 4.778z" stroke="#DBE8EB" stroke-width="3" stroke-miterlimit="10"/>
  <path d="M2 359.431l11.943-9.634a12 12 0 0115.069 0l4.408 3.556a12 12 0 0015.07 0l4.407-3.556a12 12 0 0115.07 0l4.408 3.556a12 12 0 0015.069 0l4.408-3.556a12 12 0 0115.069 0l4.409 3.556a12 12 0 0015.069 0l4.408-3.556a12 12 0 0115.069 0l4.408 3.556a12.001 12.001 0 0015.07 0l4.408-3.556a12 12 0 0115.069 0l4.408 3.556a12 12 0 0015.069 0l4.409-3.556a12 12 0 0115.069 0l11.942 9.634M60.923 383l11.943-9.634a12 12 0 0115.069 0l4.408 3.556a12 12 0 0015.069 0l4.409-3.556a12 12 0 0115.069 0l4.408 3.556a12 12 0 0015.069 0l4.408-3.556a12.001 12.001 0 0115.07 0L177.787 383" stroke="#DBE8EB" stroke-width="3" stroke-linecap="round"/>
</svg>
