<svg width="408" height="308" fill="none" xmlns="http://www.w3.org/2000/svg"><path d="M316.156 74.912C315.188 63.205 305.366 54 293.387 54c-10.347 0-19.079 6.863-21.896 16.269-.646-.1-1.298-.168-1.97-.168-4.121 0-7.765 2.013-10.03 5.092a9.714 9.714 0 0 0-2.743-.395c-5.385 0-9.748 4.353-9.748 9.727 0 5.374 4.363 9.728 9.748 9.728a9.719 9.719 0 0 0 5.492-1.69 12.419 12.419 0 0 0 7.281 2.361c.807 0 1.593-.08 2.36-.228.053 6.803 5.6 12.304 12.43 12.304a12.44 12.44 0 0 0 11.422-7.5 22.747 22.747 0 0 0 10.037-3.523 12.37 12.37 0 0 0 8.793 3.643c6.871 0 12.437-5.555 12.437-12.411 0-6.313-4.726-11.513-10.844-12.297Z" fill="url(#LIGHT/ILLUSTRATIONS/Walking__a)"/><path d="M408 237H273v-64.446c0-10.169 8.215-18.413 18.35-18.413 1.4 0 2.763.158 4.074.456C297.192 132.986 315.231 116 337.223 116c18.634 0 34.43 12.194 39.895 29.063a28.41 28.41 0 0 1 2.702-.128c15.345 0 27.824 12.306 28.173 27.619L408 237Z" fill="url(#LIGHT/ILLUSTRATIONS/Walking__b)"/><path d="M0 178h200V83.196c0-14.96-12.171-27.087-27.184-27.087-2.075 0-4.095.231-6.036.67C164.16 24.987 137.436 0 104.854 0 77.249 0 53.848 17.938 45.751 42.754a42.407 42.407 0 0 0-4.003-.189C19.016 42.565 0 59.5.01 83.195L0 178Z" fill="url(#LIGHT/ILLUSTRATIONS/Walking__c)"/><path d="M167 232c-2.4-12.4-1-38.5 0-50h-25c0 5.833.5 19.2 2.5 26 2.5 8.5 7 27 16 42.5 7.189 12.382 20 42.5 26 53.5-2.5-17-5.5-33-10.5-49-2.535-8.113-6-7.5-9-23Z" fill="#1B2837"/><path d="M166.945 182h-25.961c-1 7.333-5.227 26.2-7 44-3.039 30.5-25.539 79-21.5 77.5 11.961-21 25-35.5 27-49.5 0 0 1.3-19.4 14.5-37s14.294-27.667 12.961-35Z" fill="#626E7B"/><path d="M153.767 118.607s1.447 2.171-1.447 5.788c-2.894 3.618-6.512 6.512-7.959 8.682-1.447 2.171 8.682 7.236 8.682 7.236l7.959-10.13 1.447-2.894s-3.617-2.17-3.617-13.747l-5.065 5.065Z" fill="#F1F3F6"/><path d="M141.468 101.966c-1.578 6.317-.724 18.088 5.788 18.812 6.512.723 15.917-2.171 15.917-13.024 0-10.852-19.535-14.47-21.705-5.788Zm-12.171 55.777c2.254-.397 7.002-9.41 9.07-13.492 1.405-2.656 4.684-8.403 6.56-10.147 2.346-2.179 7.218-.951 5.422 4.343-1.437 4.235-9.191 17.386-12.888 23.433-3.712 5.301-8.006 4.664-11.982 1.879-3.976-2.784-21.11-16.539-23.761-18.395-2.65-1.856-6.944-2.494-8.057-4.853-1.113-2.359-.688-5.222 2.175-4.797 2.862.424 4.982 5.859 8.242 8.537 3.259 2.678 22.966 13.889 25.219 13.492Z" fill="#F1F3F6"/><path d="M90.827 126.318c1.056 3.948 4.314 8.934 6.98 12.45.936 1.234.266 3.072-1.26 3.341l-4.07.719a1.942 1.942 0 0 1-1.69-.504c-2.453-2.352-10.506-10.329-12.729-15.737-.444-1.082.444-2.087 1.614-2.087h8.972c1.045 0 1.913.808 2.183 1.818Zm56.429-24.352c-2.286-2.286-4.341-2.17-5.065-.723-.723 1.447-5.064.723.724-4.341 5.788-5.065 14.47-3.618 14.47-3.618s.724-7.959 7.235-4.341c6.512 3.617 5.065 10.13-.723 9.406.723 3.617 2.17 13.023-2.894 15.917-5.065 2.894-1.447-1.447-.724-2.894.724-1.447 1.447-4.341-.723-4.341-2.171 0-2.171 2.894-3.618 3.617-1.447.724-6.511-6.511-8.682-8.682Z" fill="#1B2837"/><path d="M172.267 131.25c-3.683-4.098-6.356-4.903-7.342-3.621-3.18 4.136-2.458 10.767 2.84 17.374 0 0 7.818 7.279 11.281 12.98 3.463 5.702 5.776 10.265 7.893 21.007s3.524 17.141 3.317 21.032c-.208 3.89-2.019 7.561-.649 7.096 1.371-.465 2.056-.697 1.151 1.138 0 0-.196 6.178 2.3 2.275s-.294-12.124-.087-16.015c.208-3.891-.356-23.564-4.076-34.527-3.72-10.962-12.946-24.64-16.628-28.739Z" fill="#F1F3F6"/><path d="M146.532 130.907c-2.895 2.17-10.13 9.406-7.959 16.641 2.17 7.235 5.064 14.47 3.617 22.429-1.447 7.958-4.341 20.641 0 18.47 4.342-2.171 15.918-5.065 20.259-4.341 4.341.723 6.512 1.447 5.064-2.894-1.447-4.341-2.894-26.646 0-36.775C161.5 138 163 127 166.5 127c-3-1.158-5.498-1.158-5.498-1.158s.723 2.894-4.341 7.235c-5.065 4.342-9.406.724-10.129-2.17Z" fill="#DBE8EB"/><path d="M113.117 304.633a.999.999 0 0 0 1.208-.735l1.309-5.369a1 1 0 0 0-1.084-1.231L98.597 299.1c-1.11.126-1.21 1.701-.125 1.966l14.645 3.567Zm72.46 1.131a1 1 0 0 0 .933-1.063l-.36-5.516a1 1 0 0 0-1.402-.849l-14.682 6.497c-1.022.453-.645 1.985.47 1.913l15.041-.982Z" fill="#1B2837"/><path d="m191 208 41 56" stroke="#626E7B" stroke-width="2" stroke-linecap="round"/><path d="m235 258 25.5 33.5" stroke="#1B2837" stroke-width="20" stroke-linecap="round"/><circle cx="257.5" cy="298.5" r="5.5" fill="#D9DEE4" stroke="#fff" stroke-width="2"/><defs><linearGradient id="LIGHT/ILLUSTRATIONS/Walking__a" x1="287" y1="54" x2="287" y2="107" gradientUnits="userSpaceOnUse"><stop stop-color="#F1F3F6"/><stop offset="1" stop-color="#F1F3F6" stop-opacity="0"/></linearGradient><linearGradient id="LIGHT/ILLUSTRATIONS/Walking__b" x1="340.5" y1="116" x2="340.5" y2="237" gradientUnits="userSpaceOnUse"><stop stop-color="#F1F3F6"/><stop offset="1" stop-color="#F1F3F6" stop-opacity="0"/></linearGradient><linearGradient id="LIGHT/ILLUSTRATIONS/Walking__c" x1="100" y1="0" x2="100" y2="178" gradientUnits="userSpaceOnUse"><stop stop-color="#F1F3F6"/><stop offset="1" stop-color="#F1F3F6" stop-opacity="0"/></linearGradient></defs></svg>