<svg width="281" height="260" fill="none" xmlns="http://www.w3.org/2000/svg"><path d="M221 24v36a6 6 0 0 1-6 6h-24a6 6 0 0 1-6-6V24c0-9.941 8.059-18 18-18s18 8.059 18 18Z" stroke="#F1F3F6" stroke-width="12"/><g filter="url(#LIGHT/ILLUSTRATIONS/Forgot password__a)"><path d="M167 63c0-17.673 14.327-32 32-32h8c17.673 0 32 14.327 32 32v28c0 6.627-5.373 12-12 12h-48c-6.627 0-12-5.373-12-12V63Z" fill="#F1F3F6"/><path d="M167 63c0-17.673 14.327-32 32-32h8c17.673 0 32 14.327 32 32v28c0 6.627-5.373 12-12 12h-48c-6.627 0-12-5.373-12-12V63Z" stroke="#fff" stroke-width="4"/></g><circle cx="203" cy="69" r="20" fill="url(#LIGHT/ILLUSTRATIONS/Forgot password__b)"/><path d="M203 55v5m0 18v5m14-14h-5m-18 0h-5m23.899-9.9-3.535 3.536m-12.728 12.728-3.535 3.535m19.798.001-3.535-3.536m-12.728-12.728-3.535-3.536" stroke="#F1F3F6" stroke-width="2" stroke-linecap="round"/><path d="M66 191.5c-2.166 3.667-5.5 10.5-3.5 16.5m-10-39.5c5.5 9 9.5 19.5 8.5 38" stroke="#F1F3F6"/><path d="M65.42 190.858c-.41.87.502 1.953 1.413 1.647a101 101 0 0 1 5.774-1.764c4.241-1.144 10.239-3.267 9.245-10.582 0 0-1.595-7.658 4.535-6.531 6.13 1.128 10.542-.315 7.921-6.18-2.621-5.865 2.004-8.376 5.303-9.266 3.299-.889 8.093-6.479 4.316-11.021-3.777-4.543-12.692-5.678-15.643.173-2.95 5.851-4.277 7.473-7.02 6.696-2.744-.777-7.673-1.217-8.141 1.689-.468 2.907 4.422 6.897 2.753 9.116-1.669 2.219-5.313.927-7.67 1.562-2.356.636-4.88 4.35-1.53 11.029 2.244 4.472.284 10.16-1.257 13.432Zm-7.925-15.178c.007.899-1.15 1.416-1.87.879a24.897 24.897 0 0 0-8.206-4.017c-6.342-1.74-11.457-6.223-11.443-11.153.015-4.931-.584-8.49-4.896-9.871-4.312-1.38-6.437-3.976-6.17-8.245.266-4.27-1.403-6.662-5.872-6.467-4.47.195-10.041-4.492-7.383-10.434 2.658-5.942 9.88-9.842 14.744-6.021 4.863 3.822 6.123 7.128 10.797 6.476 4.673-.652 12.337.582 12.166 7.088-.172 6.506-.03 9.861 3.417 11.951 3.447 2.091 12.937 4.142 8.548 11.504-3.904 6.548-3.884 11.836-3.832 18.31Z" fill="#F1F3F6"/><path d="M49 208a4 4 0 0 1 4-4h17a4 4 0 0 1 4 4v21.5c0 6.904-5.596 12.5-12.5 12.5S49 236.404 49 229.5V208Z" fill="#1B2837"/><path d="M126.096 34.038s-.25 3.987-.854 6.259c-.605 2.27-.807 3.028-.452 4.744.355 1.716.711 3.432-.451 4.744-1.162 1.312-3.283 3.18-3.485 3.936-.201.757-.328 3.93-3.006 4.837-2.678.909-6.588.195-10.337-3.526-3.743-4.24-5.771-8.428-5.771-8.428l1.155-13.88 11.673-4.188 9.858 2.625 1.67 2.877Z" fill="#F1F3F6"/><path d="M104.494 47.181c-1.517.877-1.21 4.543-1.968 4.34-.759-.201-1.517-.403-2.026-4.593-.508-4.189-1.597-12.303 1.201-16.705 2.798-4.402 6.017-6.03 11.317-5.904 5.301.126 12.141 3.385 15.167 4.039 1.396.302 3.171-.093 4.678-.607.947-.323 1.746.632 1.034 1.335-.363.358-.77.72-1.221 1.061-.389.295.874 1.261 1.346 1.387.524.14-.619.564-1.133.738l-2.051.696a.74.74 0 0 0-.12 1.35c.546.301.49 1.083-.105 1.271-.773.245-1.727.5-2.544.584-.421.043-.296 1.23 0 1.534.336.346-.484.77-.965.805-1.659.118-4.3-.051-6.848-1.726 0 0-3.59-1.767-4.598 2.018-1.008 3.785-.653 5.501-1.613 6.056-.96.556-2.275-.605-3.187-3.28-.912-2.675-2.428-3.08-4.147-2.726-1.718.353-1.766 3.583-1.209 4.542l1.113 1.918s-1.162 1.312-2.121 1.867Zm13.062 135.931-19.424-51.741 26.421-1.871 9.769 52.795c.842 4.55.687 9.228-.454 13.712l-13.028 51.207-3.406-.568 2.135-50.947a32.004 32.004 0 0 0-2.013-12.587Z" fill="#1B2837"/><path d="m118.037 242.221-4.067 4.774c-.677.787-.473 2.005.43 2.602l6.277 4.112a12.003 12.003 0 0 0 6.198 1.957c1.545.049 3.168.102 3.79.124 1.322.046 1.761-.394 1.202-1.201l-3.913-2.725-5.851-8.455-4.066-1.188Z" fill="#1B2837"/><path d="M104.053 54c0 9-4 10-6 12.5 5.167 2.5 19.2 7.2 18 4-1.2-3.2-3-10.167-2.5-12.5-2.666-4.667-9.5-11.2-9.5-4Z" fill="#F1F3F6"/><path d="M98.132 252.89h-3.394s1.691-57.903 1.691-68.122c0-10.218-1.691-56.768-1.691-56.768l28.355 1.287s-7.354 48.593-9.633 60.591c-2.28 11.997-15.328 63.012-15.328 63.012Z" fill="#1B2837"/><path d="M124.285 130.526s1.246-23.588-.271-38.192c-1.516-14.603-8.725-24.457-11.296-27.52-2.572-3.075-10.518-2.306-14.213.916-3.694 3.222-9.495 54.416-5.036 63.472 4.46 9.057 30.816 1.324 30.816 1.324Z" fill="#DBE8EB"/><path d="M119.676 113.93c3.124-4.029 6.917-8.504 7.592-6.043.676 2.461-.216 4.027 5.149 3.355 5.366-.672 8.051.446 4.031 3.132-4.02 2.686-9.834 2.687-14.978 2.24-5.144-.446-1.794-2.684-1.794-2.684Z" fill="#F1F3F6"/><g opacity=".4" filter="url(#LIGHT/ILLUSTRATIONS/Forgot password__c)"><ellipse cx="96.505" cy="96.737" rx="8.238" ry="12.5" transform="rotate(23.257 96.505 96.737)" fill="#A6C5CD"/></g><g opacity=".5" filter="url(#LIGHT/ILLUSTRATIONS/Forgot password__d)"><ellipse cx="120.532" cy="95.246" rx="5.527" ry="12.5" transform="rotate(-9.59 120.532 95.246)" fill="#A6C5CD"/></g><path d="M106.516 67.963c-2.552-4.116-8.481-6.254-15.03 4.138-6.55 10.391-7.988 24.41-8.048 29.515-.06 5.104.186 11.053 10.186 12.553s28.914 5.058 31 1c2.014-4.881-15-8-19-9s-9.72-2.608-9.72-2.608 14.114-29.938 10.612-35.598Z" fill="#DBE8EB"/><path d="M119.436 65.694c1.391-4.904 2.746-10.612.364-9.697-2.382.916-3.115 2.563-5.755-2.156-2.64-4.72-5.133-6.218-4.912-1.389.221 4.83 3.668 9.513 7.077 13.39 3.41 3.877 3.226-.148 3.226-.148Z" fill="#fff"/><path d="M134.622 111.589c-2.641 3.609-7.159-1.161-12.019-9.229-3.702-6.144-11.641-48.656-3.034-36.528 3.016 4.25 6.103 12.871 10.369 20.048 4.265 7.177 7.325 22.1 4.684 25.709Z" fill="#DBE8EB"/><path d="m94.718 249.063-.653 5.293c-.112.875.61 1.644 1.539 1.644l18.678-.074c.843 0 1.075-1.104.292-1.415L98.192 248l-3.474 1.063Z" fill="#1B2837"/><defs><filter id="LIGHT/ILLUSTRATIONS/Forgot password__a" x="125" y="1" width="156" height="156" filterUnits="userSpaceOnUse" color-interpolation-filters="sRGB"><feFlood flood-opacity="0" result="BackgroundImageFix"/><feColorMatrix in="SourceAlpha" values="0 0 0 0 0 0 0 0 0 0 0 0 0 0 0 0 0 0 127 0" result="hardAlpha"/><feOffset dy="12"/><feGaussianBlur stdDeviation="20"/><feColorMatrix values="0 0 0 0 0.85098 0 0 0 0 0.870588 0 0 0 0 0.894118 0 0 0 1 0"/><feBlend in2="BackgroundImageFix" result="effect1_dropShadow_180_3814"/><feBlend in="SourceGraphic" in2="effect1_dropShadow_180_3814" result="shape"/></filter><filter id="LIGHT/ILLUSTRATIONS/Forgot password__c" x="75.468" y="72.798" width="42.074" height="47.878" filterUnits="userSpaceOnUse" color-interpolation-filters="sRGB"><feFlood flood-opacity="0" result="BackgroundImageFix"/><feBlend in="SourceGraphic" in2="BackgroundImageFix" result="shape"/><feGaussianBlur stdDeviation="6" result="effect1_foregroundBlur_180_3814"/></filter><filter id="LIGHT/ILLUSTRATIONS/Forgot password__d" x="102.696" y="70.886" width="35.671" height="48.721" filterUnits="userSpaceOnUse" color-interpolation-filters="sRGB"><feFlood flood-opacity="0" result="BackgroundImageFix"/><feBlend in="SourceGraphic" in2="BackgroundImageFix" result="shape"/><feGaussianBlur stdDeviation="6" result="effect1_foregroundBlur_180_3814"/></filter><linearGradient id="LIGHT/ILLUSTRATIONS/Forgot password__b" x1="203" y1="49" x2="203" y2="89" gradientUnits="userSpaceOnUse"><stop stop-color="#fff"/><stop offset="1" stop-color="#fff" stop-opacity="0"/></linearGradient></defs></svg>