<svg width="273" height="392" fill="none" xmlns="http://www.w3.org/2000/svg">
  <path d="M52.819 390.054c19.965-24.182 50.192-39.598 84.001-39.598 33.567 0 63.582 15.189 83.562 39.054" stroke="#DBE8EB" stroke-width="3" stroke-miterlimit="10" stroke-linecap="round" stroke-linejoin="bevel"/>
  <path d="M150.498 38.867h-27.416v10.262h27.416V38.867zm-2.146-16.912h-23.124v8.297h23.124v-8.297z" stroke="#DBE8EB" stroke-width="3" stroke-miterlimit="10" stroke-linecap="round"/>
  <path d="M155.017 30.252h-36.469v8.615h36.469v-8.615z" stroke="#DBE8EB" stroke-width="3" stroke-miterlimit="10" stroke-linecap="round"/>
  <path d="M136.79 21.955V2.307m32.584 238.551c-14.766-50.494-22.806-111.945-21.884-191.73m48.983 260.542c-8.161-16.171-15.824-34.171-22.141-53.018m76.247 132.842c-15.794-19.556-30.545-40.035-43.376-62.131m-56.705-86.505c-10.413-50.494-14.494-111.945-13.587-191.73m34.126 260.24c-6.71-16.262-12.348-33.657-16.973-52.625m66.046 132.465c-15.552-19.27-28.64-39.129-39.507-60.832" stroke="#DBE8EB" stroke-width="3" stroke-miterlimit="10" stroke-linecap="round" stroke-linejoin="bevel"/>
  <path d="M180.105 327.363l38.419 18.544-14.721 21.537 46.777 22.05-30.197.015 13.935-21.037-43.331-21.038 16.202-20.071" stroke="#DBE8EB" stroke-width="3" stroke-miterlimit="10" stroke-linecap="round" stroke-linejoin="round"/>
  <path d="M207 390.307h64m-269 0h64" stroke="#DBE8EB" stroke-width="3" stroke-linecap="round"/>
  <path d="M154.064 256.743l26.389 16.912-15.386 19.814 31.406 16.202m-45.976-68.813l13.527-19.813-20.297-21.174 12.695-16.686-16.292-18.151 11.41-18.151-13.466-15.189 10.927-15.023-11.879-13.572 10.7-13.648-11.032-15.083 10.624-15.128-10.504-10.111h10.58l-10.7 10.11 10.715 15.114-10.595 15.114 11.426 13.602-10.851 13.572 12.65 15.053-11.26 15.249 14.811 18.091-11.894 18.136 17.592 16.701-12.559 21.174 22.549 19.813" stroke="#DBE8EB" stroke-width="3" stroke-miterlimit="10" stroke-linecap="round" stroke-linejoin="round"/>
  <path d="M171.037 309.368l17.697-15.899-30.151-19.814 15.748-17.003" stroke="#DBE8EB" stroke-width="3" stroke-miterlimit="10" stroke-linecap="round" stroke-linejoin="round"/>
  <path d="M136.79 242.37h40.564l-3.023 13.345H136.79" stroke="#DBE8EB" stroke-width="3" stroke-miterlimit="10" stroke-linecap="round"/>
  <path d="M104.19 240.858c14.766-50.494 22.806-111.945 21.884-191.73M77.106 309.67c8.161-16.171 15.824-34.171 22.141-53.018M23 389.494c15.794-19.556 30.544-40.035 43.376-62.131m56.706-86.505c10.413-50.494 14.494-111.945 13.587-191.73m-34.142 260.24c6.711-16.262 12.348-33.657 16.973-52.625M53.454 389.208c15.551-19.27 28.64-39.129 39.506-60.832" stroke="#DBE8EB" stroke-width="3" stroke-miterlimit="10" stroke-linecap="round" stroke-linejoin="bevel"/>
  <path d="M93.474 327.363l-38.418 18.544 14.705 21.537L23 390h30l-13.738-21.528 43.33-21.038-16.216-20.071m53.138-70.62l-26.403 16.912 15.401 19.814-31.406 16.202m45.976-68.813l-13.527-19.813 20.283-21.174-12.681-16.686 16.278-18.151-11.411-18.151 13.481-15.189-10.927-15.023 11.864-13.572-10.685-13.648 11.018-15.083L126.15 59.24l10.519-10.111h-10.58l10.701 10.11-10.716 15.114 10.595 15.114-11.426 13.602 10.836 13.572-12.634 15.053 11.259 15.249-14.826 18.091 11.894 18.136-17.577 16.701 12.544 21.174-22.549 19.813" stroke="#DBE8EB" stroke-width="3" stroke-miterlimit="10" stroke-linecap="round" stroke-linejoin="round"/>
  <path d="M102.527 309.368l-17.683-15.899 30.152-19.814-15.749-17.003" stroke="#DBE8EB" stroke-width="3" stroke-miterlimit="10" stroke-linecap="round" stroke-linejoin="round"/>
  <path d="M136.79 242.37H96.225l3.023 13.345h37.542m-73.437 55.28l3.038 16.368h140.797l3.023-16.368H63.353zm73.436 39.462l-8.056.287v-8.434a4.035 4.035 0 018.071 0v8.147h-.015z" stroke="#DBE8EB" stroke-width="3" stroke-miterlimit="10" stroke-linecap="round"/>
  <path d="M128.734 350.744l-7.738.846-1.194-8.176a4.49 4.49 0 118.932-.65v7.98z" stroke="#DBE8EB" stroke-width="3" stroke-miterlimit="10" stroke-linecap="round"/>
  <path d="M120.995 351.59l-7.587 1.391-2.357-9.22c-.711-2.75 1.36-5.44 4.201-5.455a4.38 4.38 0 014.368 3.733l1.375 9.551z" stroke="#DBE8EB" stroke-width="3" stroke-miterlimit="10" stroke-linecap="round"/>
  <path d="M113.408 352.98l-7.466 1.904-4.02-10.413c-1.148-2.977 1.058-6.181 4.262-6.151a4.524 4.524 0 014.353 3.401l2.871 11.259z" stroke="#DBE8EB" stroke-width="3" stroke-miterlimit="10" stroke-linecap="round"/>
  <path d="M105.943 354.885l-7.27 2.433-6-12.937c-1.315-2.856.756-6.106 3.9-6.106a4.307 4.307 0 014.019 2.751l5.351 13.859zm-20.207-5.108l5.94 10.519 6.982-2.963-5.32-11.456c-1.436-3.098-5.758-3.34-7.526-.423a4.294 4.294 0 00-.076 4.323zm5.939 10.519l-6.907 3.294-3.96-5.441a4.214 4.214 0 01-.136-4.76c1.723-2.66 5.653-2.539 7.21.211l3.793 6.696z" stroke="#DBE8EB" stroke-width="3" stroke-miterlimit="10" stroke-linecap="round"/>
  <path d="M84.784 363.575l-6.65 3.779-1.708-1.769a3.973 3.973 0 01-.484-4.912c1.512-2.342 4.912-2.448 6.56-.196l2.282 3.098z" stroke="#DBE8EB" stroke-width="3" stroke-miterlimit="10" stroke-linecap="round"/>
  <path d="M78.134 367.369l-6.378 4.322a2.44 2.44 0 01-.378-3.219l1.542-2.267c.876-1.285 2.72-1.436 3.808-.317l1.406 1.481z" stroke="#DBE8EB" stroke-width="3" stroke-miterlimit="10" stroke-linecap="round"/>
  <path d="M88.672 341.339v-1.564h2.169v1.564h-2.17zm-6.499 9.008v-1.565h2.17v1.565h-2.17zm-9.733 17.411v-1.565h2.169v1.565h-2.17z" fill="#fff" stroke="#DBE8EB" stroke-width="3" stroke-linecap="round"/>
  <path d="M88 338h97.041m-48.251 12.457l8.055.287v-8.434a4.035 4.035 0 00-8.071 0v8.147h.016z" stroke="#DBE8EB" stroke-width="3" stroke-miterlimit="10" stroke-linecap="round"/>
  <path d="M144.845 350.744l7.738.846 1.194-8.176a4.49 4.49 0 10-8.932-.65v7.98z" stroke="#DBE8EB" stroke-width="3" stroke-miterlimit="10" stroke-linecap="round"/>
  <path d="M152.583 351.59l7.586 1.391 2.358-9.22c.711-2.75-1.36-5.44-4.201-5.455a4.38 4.38 0 00-4.368 3.733l-1.375 9.551z" stroke="#DBE8EB" stroke-width="3" stroke-miterlimit="10" stroke-linecap="round"/>
  <path d="M160.169 352.981l7.466 1.904 4.021-10.413c1.148-2.978-1.058-6.182-4.262-6.151a4.523 4.523 0 00-4.353 3.4l-2.872 11.26z" stroke="#DBE8EB" stroke-width="3" stroke-miterlimit="10" stroke-linecap="round"/>
  <path d="M167.636 354.885l7.269 2.433 6-12.937c1.315-2.856-.755-6.106-3.899-6.106a4.308 4.308 0 00-4.02 2.751l-5.35 13.859zm20.192-5.108l-5.94 10.519-6.982-2.963 5.32-11.456c1.435-3.098 5.758-3.34 7.526-.423a4.223 4.223 0 01.076 4.323zm-5.94 10.519l6.907 3.294 3.96-5.441a4.213 4.213 0 00.136-4.76c-1.723-2.66-5.653-2.539-7.209.211l-3.794 6.696z" stroke="#DBE8EB" stroke-width="3" stroke-miterlimit="10" stroke-linecap="round"/>
  <path d="M188.794 363.575l6.65 3.779 1.708-1.769a3.973 3.973 0 00.484-4.912c-1.512-2.342-4.912-2.448-6.559-.196l-2.283 3.098z" stroke="#DBE8EB" stroke-width="3" stroke-miterlimit="10" stroke-linecap="round"/>
  <path d="M195.444 367.369l6.378 4.322a2.44 2.44 0 00.378-3.219l-1.542-2.267c-.876-1.285-2.72-1.436-3.808-.317l-1.406 1.481z" stroke="#DBE8EB" stroke-width="3" stroke-miterlimit="10" stroke-linecap="round"/>
  <path d="M184.908 339.776v1.564h-2.169v-1.564h2.169zm6.491 8.999v1.565h-2.169v-1.565h2.169zm9.737 17.421v1.564h-2.169v-1.564h2.169z" fill="#fff" stroke="#DBE8EB" stroke-width="3" stroke-linecap="round"/>
</svg>
