<svg width="285" height="290" fill="none" xmlns="http://www.w3.org/2000/svg">
  <path d="M31.445 45.684l-5.249 4.253-5.249-4.253v-6.855h10.498v6.855zm0-20.516H20.947v-6.705c0-1.251 1-2.252 2.25-2.252h5.999c1.25 0 2.25 1 2.25 2.252v6.705zm0 0H20.947v13.66h10.498v-13.66zm77.985 20.516l-5.249 4.253-5.249-4.253v-6.855h10.498v6.855zm0-20.516H98.932v-6.705c0-1.251 1-2.252 2.25-2.252h5.999c1.249 0 2.249 1 2.249 2.252v6.705zm0 0H98.932v13.66h10.498v-13.66zm-5.248 24.769v19.716M26.196 49.937v20.516m77.986-54.643v-5.604M26.196 15.81v-5.604m77.987 180.69v-91.97l13.897-15.313V64.098h-6.499v6.405h-7.398v-6.405h-6.8v6.405h-7.448v-6.405h-6.799v6.405h-7.448v-6.405h-6.799v6.405H61.49v-6.405h-6.849v6.405h-7.398v-6.405h-6.799v6.405h-7.449v-6.405h-6.798v6.405h-7.45v-6.405H12.25v19.515l13.947 15.312v61.798m-.001 48.137v34.927m-1.9-159.673l10.748 13.16m-.549-13.16l8.099 13.16m2.099-13.16l5.399 13.16m4.848-13.16l2.7 13.16m7.499-13.16v13.16m40.992-13.16l-10.748 13.16m.55-13.16l-8.098 13.16m-2.101-13.16l-5.399 13.16m-4.848-13.16l-2.65 13.16m45.243-13.661H12.248" stroke="#DBE8EB" stroke-width="3" stroke-miterlimit="10" stroke-linecap="round"/>
  <path d="M57.59 143.21l7.549-8.307 7.649 8.307v10.858H57.59V143.21zm3.75-17.164v-11.008a3.8 3.8 0 117.599 0v11.008M57.59 154.068v5.854m15.198-5.854v5.854m-7.599-5.854v5.854m-7.599-16.713h15.198m21.696 46.987h9.699m-70.139 0h44.793M68.938 33.074H31.445M99 33h-9m-.066-7.382H68.788m-27.945 7.456V27.82m-9.398 5.254V26.77m18.746 6.304V27.82m9.399 5.254V27.82m9.349 5.254V26.77m175.917 212.514v-23.068m-7.748-26.02h-6.749v3.853a6.755 6.755 0 01-6.749 6.755c-3.749 0-6.748-3.052-6.748-6.755v-3.853h-6.349v3.853a6.756 6.756 0 01-6.749 6.755c-3.749 0-6.749-3.052-6.749-6.755v-3.853h-6.349v3.853a6.755 6.755 0 01-6.749 6.755c-3.699 0-6.748-3.052-6.748-6.755v-3.853h-6.349v3.853a6.756 6.756 0 01-6.749 6.755c-3.749 0-6.749-3.052-6.749-6.755v-3.853h-6.299v3.853a6.755 6.755 0 01-6.748 6.755c-3.75 0-6.749-3.052-6.749-6.755v-3.853h-6.349v3.853a6.756 6.756 0 01-6.749 6.755c-3.749 0-6.749-3.052-6.749-6.755v-3.853h-13.497v51.89" stroke="#DBE8EB" stroke-width="3" stroke-miterlimit="10" stroke-linecap="round"/>
  <path d="M131.278 217.267h-8.499v8.506h8.499v-8.506zm22.795 0h-8.498v8.506h8.498v-8.506zm22.846 0h-8.499v8.506h8.499v-8.506zm22.796 0h-8.498v8.506h8.498v-8.506zm22.796 0h-8.499v8.506h8.499v-8.506zM79.436 11.658V2M34.045 174.133H18.398v-10.007c0-1.852 1.5-3.353 3.35-3.353h8.898c1.85 0 3.35 1.501 3.35 3.353v10.007h.05z" stroke="#DBE8EB" stroke-width="3" stroke-miterlimit="10" stroke-linecap="round"/>
  <path d="M18.398 174.133h15.647V196.2l-7.849 12.66-7.799-12.66v-22.067zm0 22.117h15.647m60.439-14.811H78.836v-10.008c0-1.851 1.5-3.352 3.35-3.352h8.898a3.35 3.35 0 013.35 3.352v10.008h.05zm-15.648 0h15.648v22.117l-7.799 12.66-7.849-12.66v-22.117zm0 22.117h15.648m-7.799-35.477v-7.356m0 28.622v6.355m166.021-14.261h-15.647v-10.008a3.35 3.35 0 013.349-3.352h8.898c1.85 0 3.35 1.501 3.35 3.352v10.008h.05zm-15.647 0h15.647v22.117l-7.849 12.66-7.798-12.66v-22.117zm0 21.467h15.697m-7.898-34.827v-7.356m0 27.721v6.355M89.935 68.852V22.166c0-5.805-4.7-10.559-10.549-10.559-5.798 0-10.548 4.704-10.548 10.559v46.686m35.344 35.577l13.897 10.058v34.327l-5.749 4.403v36.979m5.749-70.955h-13.897m13.897 22.167h-13.897M283 240.785l-5.149 3.803c-3.2 2.352-6.599 2.352-9.798 0l-5.149-3.803c-6.549-4.854-13.498-4.854-20.047 0-6.549 4.854-13.497 4.854-20.046 0-3.3-2.452-6.649-3.653-10.049-3.653-3.399 0-6.748 1.201-10.048 3.653l-5.149 3.803c-3.199 2.352-6.599 2.352-9.798 0l-5.149-3.803c-6.549-4.854-13.498-4.854-20.047 0-6.548 4.854-13.497 4.854-20.046 0-3.299-2.452-6.649-3.653-10.048-3.653-3.4 0-6.749 1.201-10.048 3.653l-5.15 3.803c-3.199 2.352-6.598 2.352-9.798 0l-5.149-3.803c-6.549-4.854-13.497-4.854-20.046 0-6.55 4.854-13.498 4.854-20.047 0-3.3-2.452-6.648-3.653-10.048-3.653-3.4 0-6.749 1.201-10.048 3.653l-5.15 3.803c-3.199 2.352-6.598 2.352-9.798 0l-5.149-3.803c-6.548-4.854-13.497-4.854-20.046 0m240.858 20.966c-6.549 4.854-13.498 4.854-20.047 0-3.299-2.451-6.649-3.652-10.048-3.652s-6.749 1.201-10.048 3.652l-5.149 3.803c-3.2 2.352-6.599 2.352-9.799 0l-5.149-3.803c-6.549-4.853-13.497-4.853-20.046 0-6.549 4.854-13.498 4.854-20.047 0-3.299-2.451-6.648-3.652-10.048-3.652-3.399 0-6.749 1.201-10.048 3.652l-5.149 3.803c-3.199 2.352-6.599 2.352-9.798 0l-5.149-3.803c-6.55-4.853-13.498-4.853-20.047 0-6.549 4.854-13.497 4.854-20.046 0m55.089 24.769l5.149-3.802c3.3-2.452 6.649-3.653 10.048-3.653 3.4 0 6.749 1.201 10.049 3.653 6.548 4.853 13.497 4.853 20.046 0 6.549-4.854 13.498-4.854 20.046 0l5.15 3.802c3.199 2.352 6.598 2.352 9.798 0l5.149-3.802c3.299-2.452 6.649-3.653 10.048-3.653" stroke="#DBE8EB" stroke-width="3" stroke-miterlimit="10" stroke-linecap="round"/>
</svg>
