<svg width="248" height="220" fill="none" xmlns="http://www.w3.org/2000/svg"><g filter="url(#LIGHT/ILLUSTRATIONS/Face ID__a)"><rect x="132" y="28" width="76" height="140" rx="12" fill="#F1F3F6"/><rect x="135" y="31" width="70" height="134" rx="9" stroke="#fff" stroke-width="6"/></g><circle cx="170" cy="98" r="20" fill="url(#LIGHT/ILLUSTRATIONS/Face ID__b)"/><circle cx="170" cy="98" r="19" stroke="#F1F3F6" stroke-width="2" stroke-linecap="round"/><path d="M160.88 90.8v3.52m17.92-3.52v3.52m-8.64-2.88v7.28a2 2 0 0 1-2 2h-1.2m10.88 4.48c-1.989 1.974-4.767 3.2-7.84 3.2-3.074 0-5.852-1.226-7.84-3.2" stroke="#F1F3F6" stroke-width="2" stroke-linecap="round"/><path d="M59 51.5 170 39v4L59 135V51.5Z" fill="url(#LIGHT/ILLUSTRATIONS/Face ID__c)"/><path d="M67.08 63.699s2.107 10.517 2.107 16.828c0 6.31 0 8.413 2.107 12.62 2.107 4.207 4.214 8.414 2.107 12.621-2.107 4.207-6.321 10.518-6.321 12.621 0 2.104 1.862 10.42-4.459 14.627-6.32 4.207-16.958 5.057-29.254-2.006-12.642-8.414-20.797-17.88-20.797-17.88L5.975 76.32l27.392-18.932h27.391l6.322 6.31Z" fill="#F1F3F6"/><path d="M20.113 112.725c-3.329 3.323 0 12.621-2.107 12.621s-4.214 0-8.428-10.518C5.364 104.311-3.068 84.008 1.15 70.656c4.218-13.354 11.444-19.803 25.285-23.139 13.84-3.336 33.838.394 42.14 0 5.778-.273 12.696-5.258 16.37-8.265.775-.634 1.862.07 1.493 1.001-1.02 2.571-2.822 6.282-5.693 9.69-.574.682-.103 1.781.788 1.781h2.703c.99 0 1.374 1.284.55 1.833l-8.004 5.327c-.724.481-.531 1.592.312 1.802l4.19 1.046c.817.204 1.02 1.25.324 1.725-2.074 1.415-5.647 3.679-8.563 4.64-.846.279-1.267 1.52-.587 2.096.475.403.913.742 1.313 1.028.826.59.903 2.687-.045 3.048-4.075 1.552-11.525 3.38-19.9.593 0 0-10.535-2.103-10.535 8.414 0 10.518 2.107 14.725 0 16.828-2.107 2.103-6.321 0-10.535-6.31s-8.428-6.31-12.643-4.207c-4.214 2.103-2.107 10.517 0 12.62a26098 26098 0 0 0 4.215 4.207s-2.107 4.207-4.215 6.311Z" fill="#1B2837"/><circle cx="170" cy="41" r="2" fill="#1B2837"/><defs><linearGradient id="LIGHT/ILLUSTRATIONS/Face ID__b" x1="170" y1="78" x2="170" y2="118" gradientUnits="userSpaceOnUse"><stop stop-color="#fff"/><stop offset="1" stop-color="#fff" stop-opacity="0"/></linearGradient><linearGradient id="LIGHT/ILLUSTRATIONS/Face ID__c" x1="165" y1="42.5" x2="35.5" y2="114" gradientUnits="userSpaceOnUse"><stop stop-color="#D9DEE4"/><stop offset="1" stop-color="#fff" stop-opacity="0"/></linearGradient><filter id="LIGHT/ILLUSTRATIONS/Face ID__a" x="92" y="0" width="156" height="220" filterUnits="userSpaceOnUse" color-interpolation-filters="sRGB"><feFlood flood-opacity="0" result="BackgroundImageFix"/><feColorMatrix in="SourceAlpha" values="0 0 0 0 0 0 0 0 0 0 0 0 0 0 0 0 0 0 127 0" result="hardAlpha"/><feOffset dy="12"/><feGaussianBlur stdDeviation="20"/><feColorMatrix values="0 0 0 0 0.849244 0 0 0 0 0.869846 0 0 0 0 0.89388 0 0 0 1 0"/><feBlend in2="BackgroundImageFix" result="effect1_dropShadow_180_3645"/><feBlend in="SourceGraphic" in2="effect1_dropShadow_180_3645" result="shape"/></filter></defs></svg>