<svg width="288" height="390" fill="none" xmlns="http://www.w3.org/2000/svg">
  <path d="M103.14 106.91s4.476-2.914 7.898-2.914c3.409 0 7.897 2.914 7.897 2.914M108.5 19.815l-5.855-5.855a3.59 3.59 0 010-5.061l5.855-5.855a3.59 3.59 0 015.062 0l5.855 5.855a3.59 3.59 0 010 5.061l-5.855 5.855a3.566 3.566 0 01-5.062 0zm2.524 17.149v-26.01" stroke="#DBE8EB" stroke-width="3" stroke-miterlimit="10"/>
  <path d="M111.024 194.266v44.913" stroke="#DBE8EB" stroke-width="3" stroke-miterlimit="10" stroke-linecap="round"/>
  <path d="M123.281 257.16l-24.5 22.561V170.846c0-53.618 12.244-136.576 12.244-136.576s12.243 82.945 12.243 136.576c.013 28.637.013 86.314.013 86.314z" stroke="#DBE8EB" stroke-width="3" stroke-miterlimit="10"/>
  <path d="M109.441 180.651l1.677-.872.872 1.678-1.678.871-.871-1.677z" stroke="#DBE8EB" stroke-width="2"/>
  <path d="M98.781 187.136l7.547-3.917" stroke="#DBE8EB" stroke-width="3" stroke-miterlimit="10"/>
  <path d="M109.441 171.544l1.677-.872.872 1.677-1.678.872-.871-1.677z" stroke="#DBE8EB" stroke-width="2"/>
  <path d="M98.781 178.028l7.547-3.916" stroke="#DBE8EB" stroke-width="3" stroke-miterlimit="10"/>
  <path d="M109.441 162.436l1.677-.872.872 1.677-1.677.872-.872-1.677z" stroke="#DBE8EB" stroke-width="2"/>
  <path d="M98.781 168.92l7.547-3.916" stroke="#DBE8EB" stroke-width="3" stroke-miterlimit="10"/>
  <path d="M109.441 153.328l1.677-.872.872 1.677-1.677.872-.872-1.677z" stroke="#DBE8EB" stroke-width="2"/>
  <path d="M98.781 159.813l7.547-3.917" stroke="#DBE8EB" stroke-width="3" stroke-miterlimit="10"/>
  <path d="M111.024 251.514v-7.13" stroke="#DBE8EB" stroke-width="3" stroke-miterlimit="10" stroke-linecap="round"/>
  <path d="M109.441 144.22l1.677-.872.872 1.678-1.677.872-.872-1.678z" stroke="#DBE8EB" stroke-width="2"/>
  <path d="M98.781 150.705l7.547-3.916m38.993 9.862s21.976 8.457 21.976 15.301l.065-16.433-22.041-10.448-22.04 10.448.065 16.433c-.013-6.857 21.975-15.301 21.975-15.301z" stroke="#DBE8EB" stroke-width="3" stroke-miterlimit="10"/>
  <path d="M136.682 217.698h17.266" stroke="#DBE8EB" stroke-width="3" stroke-miterlimit="10" stroke-linecap="round"/>
  <path d="M240.678 348.718l-95.357-56.272-95.37 56.675v-24.369l95.37-87.876 95.357 87.876v23.966z" stroke="#DBE8EB" stroke-width="3" stroke-miterlimit="10"/>
  <path d="M56.066 345.465l-.052.026c-2.589 1.354-6.063-.104-6.063-2.537v-13.96c0-3.123 1.679-6.115 4.62-8.236l.025-.013c2.2-1.588 5.764-.365 5.764 1.977v16.472c0 2.524-1.613 4.879-4.294 6.271zm10.331-6.141c-2.602 1.314-6.037-.13-6.037-2.537v-17.331c0-3.109 1.679-6.076 4.632-8.171l.013-.013c2.2-1.561 5.751-.351 5.751 1.965v19.829c.013 2.524-1.626 4.879-4.359 6.258zm10.474-6.219l-.039.026c-2.589 1.327-6.063-.104-6.063-2.511v-20.779c0-3.083 1.665-6.024 4.606-8.105l.039-.026c2.199-1.562 5.764-.365 5.764 1.951v23.264c0 2.472-1.614 4.801-4.307 6.18zm10.369-6.167l-.012.013c-2.602 1.314-6.037-.13-6.037-2.537v-24.448c0-3.109 1.678-6.076 4.632-8.184l.026-.013c2.198-1.574 5.763-.364 5.763 1.965v26.946c-.026 2.524-1.665 4.879-4.371 6.258z" stroke="#DBE8EB" stroke-width="3" stroke-miterlimit="10"/>
  <path d="M97.702 320.719l-.052.026c-2.59 1.314-6.064-.104-6.064-2.485v-27.557c0-3.058 1.679-5.973 4.632-8.041l.026-.013c2.2-1.549 5.764-.352 5.764 1.925v30.03c-.013 2.446-1.626 4.749-4.306 6.115z" stroke="#DBE8EB" stroke-width="3" stroke-miterlimit="10"/>
  <path d="M108.11 314.552l-.052.026c-2.589 1.431-6.063-.117-6.063-2.707v-30.029c0-3.331 1.679-6.518 4.632-8.769l.026-.013c2.199-1.679 5.764-.377 5.764 2.108v32.722c-.013 2.68-1.626 5.178-4.307 6.662z" stroke="#DBE8EB" stroke-width="3" stroke-miterlimit="10"/>
  <path d="M118.519 308.371l-.052.026c-2.589 1.562-6.063-.117-6.063-2.94v-32.723c0-3.63 1.678-7.091 4.632-9.55l.026-.013c2.199-1.834 5.764-.416 5.764 2.29v35.65c-.013 2.915-1.627 5.647-4.307 7.26z" stroke="#DBE8EB" stroke-width="3" stroke-miterlimit="10"/>
  <path d="M128.928 302.191l-.052.026c-2.59 1.691-6.064-.13-6.064-3.188v-35.363c0-3.93 1.679-7.677 4.632-10.331l.026-.013c2.199-1.978 5.764-.456 5.764 2.472v38.538a9.43 9.43 0 01-4.306 7.859zm105.635 42.923l.052.026c2.59 1.327 6.064-.104 6.064-2.498V328.89c0-3.084-1.679-6.024-4.619-8.119l-.026-.013c-2.199-1.562-5.764-.352-5.764 1.951v16.251c0 2.459 1.613 4.775 4.293 6.154z" stroke="#DBE8EB" stroke-width="3" stroke-miterlimit="10"/>
  <path d="M224.233 339.012c2.602 1.301 6.037-.13 6.037-2.498v-17.136c0-3.07-1.679-6.011-4.632-8.092l-.013-.013c-2.199-1.549-5.751-.352-5.751 1.938v19.621c-.013 2.485 1.626 4.814 4.359 6.18zm-10.474-6.18l.039.026c2.589 1.314 6.063-.104 6.063-2.485v-20.61c0-3.057-1.665-5.972-4.605-8.04l-.04-.026c-2.198-1.549-5.763-.365-5.763 1.925v23.082c0 2.472 1.613 4.775 4.306 6.128zm-10.357-6.115l.013.013c2.603 1.314 6.037-.13 6.037-2.524v-24.292c0-3.096-1.678-6.037-4.631-8.132l-.026-.013c-2.199-1.561-5.764-.351-5.764 1.952v26.777c.013 2.511 1.652 4.84 4.371 6.219z" stroke="#DBE8EB" stroke-width="3" stroke-miterlimit="10"/>
  <path d="M192.928 320.549l.052.026c2.59 1.314 6.064-.104 6.064-2.472V290.65c0-3.044-1.679-5.946-4.632-8.015l-.026-.013c-2.199-1.535-5.764-.351-5.764 1.926v29.899c.013 2.459 1.626 4.749 4.306 6.102z" stroke="#DBE8EB" stroke-width="3" stroke-miterlimit="10"/>
  <path d="M182.52 314.447l.052.026c2.589 1.431 6.063-.104 6.063-2.693v-29.964c0-3.331-1.678-6.493-4.632-8.743l-.026-.013c-2.199-1.679-5.764-.378-5.764 2.094v32.645c.013 2.667 1.627 5.165 4.307 6.648z" stroke="#DBE8EB" stroke-width="3" stroke-miterlimit="10"/>
  <path d="M172.111 308.228l.052.026c2.59 1.562 6.063-.117 6.063-2.94v-32.619c0-3.617-1.678-7.077-4.631-9.524l-.026-.013c-2.199-1.834-5.764-.416-5.764 2.29v35.546c.013 2.902 1.626 5.621 4.306 7.234z" stroke="#DBE8EB" stroke-width="3" stroke-miterlimit="10"/>
  <path d="M161.702 302.126l.052.026c2.59 1.691 6.063-.13 6.063-3.175v-35.325c0-3.916-1.678-7.663-4.631-10.317l-.026-.013c-2.199-1.978-5.764-.456-5.764 2.472v38.486c.013 3.162 1.626 6.102 4.306 7.846z" stroke="#DBE8EB" stroke-width="3" stroke-miterlimit="10"/>
  <path d="M145.322 236.876l6.258 5.751a17.85 17.85 0 015.764 13.271l.065 35.585c-.026 3.695-4.463 5.699-7.534 3.643l-4.553-2.693-4.606 2.732c-3.071 2.043-7.456-.013-7.482-3.695l.065-35.585a17.802 17.802 0 015.764-13.271l6.259-5.738zm42.181-129.966s-4.476-2.914-7.898-2.914c-3.408 0-7.897 2.914-7.897 2.914m10.434-87.095l5.855-5.855a3.59 3.59 0 000-5.061l-5.855-5.855a3.588 3.588 0 00-5.061 0L171.226 8.9a3.59 3.59 0 000 5.061l5.855 5.855a3.565 3.565 0 005.061 0zm-2.524 17.149v-26.01" stroke="#DBE8EB" stroke-width="3" stroke-miterlimit="10"/>
  <path d="M179.618 194.266v44.913" stroke="#DBE8EB" stroke-width="3" stroke-miterlimit="10" stroke-linecap="round"/>
  <path d="M167.375 257.16l24.5 22.561V170.846c0-53.618-12.244-136.576-12.244-136.576s-12.243 82.945-12.243 136.576c-.013 28.637-.013 86.314-.013 86.314z" stroke="#DBE8EB" stroke-width="3" stroke-miterlimit="10"/>
  <path d="M180.319 182.334l-1.677-.872.871-1.677 1.678.871-.872 1.678z" stroke="#DBE8EB" stroke-width="2"/>
  <path d="M191.862 187.136l-7.534-3.917" stroke="#DBE8EB" stroke-width="3" stroke-miterlimit="10"/>
  <path d="M180.319 173.226l-1.677-.872.872-1.677 1.677.872-.872 1.677z" stroke="#DBE8EB" stroke-width="2"/>
  <path d="M191.862 178.028l-7.534-3.916" stroke="#DBE8EB" stroke-width="3" stroke-miterlimit="10"/>
  <path d="M180.026 164.022l-1.677-.872.871-1.677 1.678.872-.872 1.677z" stroke="#DBE8EB" stroke-width="2"/>
  <path d="M191.862 168.92l-7.534-3.916" stroke="#DBE8EB" stroke-width="3" stroke-miterlimit="10"/>
  <path d="M180.32 155.011l-1.678-.872.872-1.677 1.677.871-.871 1.678z" stroke="#DBE8EB" stroke-width="2"/>
  <path d="M191.862 159.813l-7.534-3.917" stroke="#DBE8EB" stroke-width="3" stroke-miterlimit="10"/>
  <path d="M179.618 251.514v-7.13" stroke="#DBE8EB" stroke-width="3" stroke-miterlimit="10" stroke-linecap="round"/>
  <path d="M180.32 145.903l-1.678-.872.872-1.677 1.677.872-.871 1.677z" stroke="#DBE8EB" stroke-width="2"/>
  <path d="M191.862 150.705l-7.534-3.916m-16.979 101.302v-21.624l-22.028-44.237-22.04 44.237v21.624m103.255-105.088s-4.476-2.915-7.898-2.915c-3.422 0-7.898 2.915-7.898 2.915m10.435-87.083l5.855-5.855a3.589 3.589 0 000-5.06l-5.855-5.856a3.588 3.588 0 00-5.061 0l-5.855 5.855a3.589 3.589 0 000 5.062l5.855 5.854a3.588 3.588 0 005.061 0zm-2.524 17.136v-26.01" stroke="#DBE8EB" stroke-width="3" stroke-miterlimit="10"/>
  <path d="M218.651 230.357v44.914" stroke="#DBE8EB" stroke-width="3" stroke-miterlimit="10" stroke-linecap="round"/>
  <path d="M206.408 293.253l24.499 22.56V206.938c0-53.618-12.243-136.575-12.243-136.575s-12.243 82.944-12.243 136.575c-.013 28.637-.013 86.315-.013 86.315z" stroke="#DBE8EB" stroke-width="3" stroke-miterlimit="10"/>
  <path d="M219.35 218.428l-1.677-.872.872-1.677 1.677.871-.872 1.678z" stroke="#DBE8EB" stroke-width="2"/>
  <path d="M230.894 223.228l-7.533-3.917" stroke="#DBE8EB" stroke-width="3" stroke-miterlimit="10"/>
  <path d="M219.35 209.32l-1.677-.872.872-1.677 1.677.872-.872 1.677z" stroke="#DBE8EB" stroke-width="2"/>
  <path d="M230.894 214.12l-7.533-3.916" stroke="#DBE8EB" stroke-width="3" stroke-miterlimit="10"/>
  <path d="M219.351 200.213l-1.678-.872.872-1.677 1.677.872-.871 1.677z" stroke="#DBE8EB" stroke-width="2"/>
  <path d="M230.894 205.012l-7.533-3.916" stroke="#DBE8EB" stroke-width="3" stroke-miterlimit="10"/>
  <path d="M219.351 191.105l-1.678-.872.872-1.677 1.677.872-.871 1.677z" stroke="#DBE8EB" stroke-width="2"/>
  <path d="M230.894 195.905l-7.533-3.917" stroke="#DBE8EB" stroke-width="3" stroke-miterlimit="10"/>
  <path d="M218.651 287.606v-7.13" stroke="#DBE8EB" stroke-width="3" stroke-miterlimit="10" stroke-linecap="round"/>
  <path d="M219.351 181.997l-1.678-.872.872-1.677 1.677.872-.871 1.677z" stroke="#DBE8EB" stroke-width="2"/>
  <path d="M230.894 186.797l-7.533-3.916M64.003 143.003s4.476-2.915 7.898-2.915c3.409 0 7.897 2.915 7.897 2.915M69.364 55.92l-5.855-5.855a3.589 3.589 0 010-5.06l5.855-5.856a3.589 3.589 0 015.06 0l5.856 5.855a3.589 3.589 0 010 5.062l-5.855 5.854a3.589 3.589 0 01-5.061 0zm2.524 17.136v-26.01" stroke="#DBE8EB" stroke-width="3" stroke-miterlimit="10"/>
  <path d="M71.888 230.357v44.914" stroke="#DBE8EB" stroke-width="3" stroke-miterlimit="10" stroke-linecap="round"/>
  <path d="M84.144 293.253l-24.5 22.56V206.938c0-53.618 12.244-136.575 12.244-136.575s12.256 82.957 12.256 136.575v86.315z" stroke="#DBE8EB" stroke-width="3" stroke-miterlimit="10"/>
  <path d="M70.302 216.618l1.678-.872.871 1.677-1.677.872-.872-1.677z" stroke="#DBE8EB" stroke-width="2"/>
  <path d="M59.645 223.228l7.533-3.917" stroke="#DBE8EB" stroke-width="3" stroke-miterlimit="10"/>
  <path d="M70.302 207.634l1.678-.871.871 1.677-1.677.872-.872-1.678z" stroke="#DBE8EB" stroke-width="2"/>
  <path d="M59.645 214.12l7.533-3.916" stroke="#DBE8EB" stroke-width="3" stroke-miterlimit="10"/>
  <path d="M70.302 198.527l1.678-.872.871 1.677-1.677.872-.872-1.677z" stroke="#DBE8EB" stroke-width="2"/>
  <path d="M59.645 205.012l7.533-3.916" stroke="#DBE8EB" stroke-width="3" stroke-miterlimit="10"/>
  <path d="M70.303 189.419l1.677-.872.872 1.678-1.678.872-.871-1.678z" stroke="#DBE8EB" stroke-width="2"/>
  <path d="M59.645 195.905l7.533-3.917" stroke="#DBE8EB" stroke-width="3" stroke-miterlimit="10"/>
  <path d="M71.888 287.606v-7.13" stroke="#DBE8EB" stroke-width="3" stroke-miterlimit="10" stroke-linecap="round"/>
  <path d="M70.303 180.311l1.677-.872.872 1.678-1.678.871-.871-1.677z" stroke="#DBE8EB" stroke-width="2"/>
  <path d="M59.645 186.797l7.533-3.916" stroke="#DBE8EB" stroke-width="3" stroke-miterlimit="10"/>
  <path d="M145.5 208v30" stroke="#DBE8EB" stroke-width="3" stroke-miterlimit="10" stroke-linecap="round"/>
  <path d="M134.913 388.31v-39.631c0-6.584 4.15-14.26 10.447-16.459 5.777 2.199 10.969 9.875 10.969 16.459v39.501l-21.416.13z" stroke="#DBE8EB" stroke-width="3" stroke-miterlimit="10"/>
  <path d="M145 359v28.702M145 345v5.282" stroke="#DBE8EB" stroke-width="3" stroke-miterlimit="10" stroke-linecap="round"/>
  <path d="M179.5 387.5l-16.965-84.737" stroke="#DBE8EB" stroke-width="3" stroke-miterlimit="10"/>
  <path d="M2 388h284" stroke="#DBE8EB" stroke-width="3" stroke-linecap="round"/>
  <path d="M192.564 389.299l-15.34-78.027m50.014 76.323l-16.159-56.351M240 387l-13.269-46.505m-123.689 22.588c0-5.113-2.628-8.379-7.52-10.083-4.489 1.704-8.522 7.676-8.522 12.79v21.793h11.28c.013-.013 3.487-18.775 4.762-24.5zm84.958.122c0-5.175 2.621-8.48 7.5-10.205 4.477 1.725 8.5 7.769 8.5 12.944V388h-11.251c-.013-.013-3.477-19.001-4.749-24.795zm-76.806 25.508l16.901-85.95m-30.003 86.445l15.314-77.936M63 388l16.564-56.756M50 387.5l13.899-47.005" stroke="#DBE8EB" stroke-width="3" stroke-miterlimit="10"/>
  <path d="M29.5 388l12.242-33.987 103.579-61.567M261 388l-12.112-33.987-103.567-61.567" stroke="#DBE8EB" stroke-width="3" stroke-miterlimit="10" stroke-linejoin="round"/>
</svg>
