<svg width="340" height="242" fill="none" xmlns="http://www.w3.org/2000/svg"><g filter="url(#LIGHT/ILLUSTRATIONS/Seat window__a)"><rect x="40" y="28" width="60" height="80" rx="24" fill="#F1F3F6"/><rect x="43" y="31" width="54" height="74" rx="21" stroke="#fff" stroke-width="6"/></g><g filter="url(#LIGHT/ILLUSTRATIONS/Seat window__b)"><rect x="140" y="28" width="60" height="80" rx="24" fill="#F1F3F6"/><rect x="143" y="31" width="54" height="74" rx="21" stroke="#fff" stroke-width="6"/></g><g filter="url(#LIGHT/ILLUSTRATIONS/Seat window__c)"><rect x="240" y="28" width="60" height="80" rx="24" fill="#F1F3F6"/><rect x="243" y="31" width="54" height="74" rx="21" stroke="#fff" stroke-width="6"/></g><path d="m144.384 133.702 1.558-1.064c.43-.291.541-.891.252-1.333l-10.038-15.171a.935.935 0 0 0-1.307-.269l-1.558 1.064c-.43.291-.54.891-.251 1.333l10.038 15.171a.934.934 0 0 0 1.306.269Z" fill="#1B2837"/><path d="M150.04 140.825c.429-5.991.63-12.907-1.846-11.312-2.477 1.594-2.921 3.666-7-1.209-4.079-4.874-7.243-6.052-5.869-.507 1.374 5.545 6.355 10.195 11.107 13.922 4.752 3.727 3.608-.894 3.608-.894Z" fill="#F1F3F6"/><path d="m192.76 205.409-10.285 29.721H158.85" stroke="#D9DEE4" stroke-width="12" stroke-linecap="round" stroke-linejoin="round"/><path d="m174.447 172.289-49.285 14.413c-11.836 3.462-15.472 18.447-6.538 26.948L129.5 224l3.5-2.065-8.464-20a9.407 9.407 0 0 1 8.464-5.768l60.142-3.064-18.695-20.814Z" fill="#626E7B"/><path d="m167.25 173.643-42.657 4.062a16 16 0 0 0-14.309 13.576l-6.409 43.112h3.75l15.913-33.437a9.408 9.408 0 0 1 8.897-5.075h51.791l-16.976-22.238Z" fill="#B6BCC4"/><path d="m185.625 198.552 16.617-57.275c-6.625 1.25-22.317 6.275-24.117 13.775-2.25 9.375-13.5 15.375-18 22.875-3.6 6 15.5 16.25 25.5 20.625Z" fill="#DBE8EB"/><g opacity=".6" filter="url(#LIGHT/ILLUSTRATIONS/Seat window__d)"><ellipse cx="182.709" cy="173.227" rx="8.238" ry="12.5" transform="rotate(99.701 182.709 173.227)" fill="#A6C5CD"/></g><path d="M225 86.63v20.111c0 2.82-.497 5.619-1.469 8.267l-29.77 81.131a11.999 11.999 0 0 1-11.265 7.866H132" stroke="#1B2837" stroke-width="20" stroke-linecap="round"/><path d="M149 171a7 7 0 1 1 0-14v14Zm3 44.625a7 7 0 1 1 0-14v14ZM149 157c15.835 0 34.348 1.454 48.616 3.771l-2.245 13.819C181.897 172.401 164.137 171 149 171v-14Zm62.183 28.19c-2.442 6.328-4.923 12.742-6.945 18.055l-13.084-4.979c2.037-5.353 4.535-11.81 6.968-18.115l13.061 5.039Zm-24.838 30.435H152v-14h34.345v14Zm17.893-12.38c-2.813 7.392-9.899 12.38-17.893 12.38v-14c2.098 0 4.032-1.319 4.809-3.359l13.084 4.979Zm-6.622-42.474c11.799 1.917 17.549 14.1 13.567 24.419l-13.061-5.039c1.106-2.869-.598-5.211-2.751-5.561l2.245-13.819Z" fill="#F1F3F6"/><mask id="LIGHT/ILLUSTRATIONS/Seat window__f" style="mask-type:alpha" maskUnits="userSpaceOnUse" x="142" y="157" width="71" height="59"><path fill-rule="evenodd" clip-rule="evenodd" d="M197.616 160.771C183.348 158.454 164.835 157 149 157a7 7 0 1 0 0 14c15.137 0 32.897 1.401 46.371 3.59 2.153.35 3.857 2.692 2.751 5.561l-1.141 2.954c-2.06 5.337-4.108 10.642-5.827 15.161-.777 2.04-2.711 3.359-4.809 3.359H152a7 7 0 1 0 0 14h34.345c7.994 0 15.08-4.988 17.893-12.38a3625.13 3625.13 0 0 1 5.801-15.09l1.144-2.965c3.982-10.319-1.768-22.502-13.567-24.419Z" fill="#DBE8EB"/></mask><g opacity=".4" filter="url(#LIGHT/ILLUSTRATIONS/Seat window__e)" mask="url(#LIGHT/ILLUSTRATIONS/Seat window__f)"><ellipse cx="179.481" cy="159.564" rx="3.902" ry="21.361" transform="rotate(108.759 179.481 159.564)" fill="#1B2837"/></g><path d="M207.793 102c-.024.029-.048.06-.07.092-.591.774-4.844 6.315-9.367 11.533-10.5 3-19.5 34.875-19.5 34.875s-29.999-12.375-31.813-10.875c-1.813 1.5-4.5 2.625 6.314 10.5 12.003 8.742 28.5 16.875 33.375 17.625s10.5 1.125 17.25-17.25 7.874-24.375 5.999-33.375c-1.47-7.059-3.362-11.45-2.258-13.033l.07-.092Z" fill="#DBE8EB"/><path d="m109.324 230.495.91 7.443c.156 1.231-.85 2.312-2.144 2.312l-26.016-.104c-1.173 0-1.497-1.552-.407-1.99L104.485 229l4.839 1.495Zm23.073-9.823 6.278 4.1c1.041.674 1.219 2.141.386 3.13l-6.237 7.34a12.012 12.012 0 0 1-5.392 3.629c-1.922.633-4.141 1.365-4.932 1.629-1.5.5-2.152.144-1.784-.971l3.567-4.447 3.852-11.674 4.262-2.736Z" fill="#1B2837"/><path d="M181.786 84.26s.213 4.773.887 7.503c.674 2.729.899 3.639.437 5.683-.462 2.045-.923 4.09.438 5.684 1.36 1.595 3.857 3.874 4.082 4.784.225.909.308 4.706 3.492 5.85 3.183 1.144 7.875.375 12.438-3.994 4.569-4.99 7.085-9.956 7.085-9.956l-1.082-16.626-13.87-5.26-11.847 2.926-2.06 3.405Z" fill="#F1F3F6"/><path d="M207.339 100.445c1.795 1.082 1.348 5.459 2.26 5.233.911-.225 1.822-.45 2.521-5.449.699-5 2.177-14.682-1.075-20.006-3.251-5.325-7.066-7.342-13.408-7.306-6.343.036-14.594 3.786-18.227 4.503-1.878.371-4.306-.315-6.214-1.065-.932-.366-1.764.575-1.095 1.32A15.285 15.285 0 0 0 174 79.463c.459.362-1.072 1.49-1.64 1.63-.63.155.728.688 1.339.907l2.438.876a.886.886 0 0 1 .115 1.617c-.66.35-.61 1.286.097 1.523.92.31 2.056.636 3.031.754.503.06.327 1.477-.033 1.834-.41.406.562.933 1.136.984 1.982.177 5.145.031 8.228-1.917 0 0 4.332-2.035 5.456 2.514 1.124 4.549.662 6.593 1.798 7.278 1.137.685 2.734-.675 3.883-3.855 1.148-3.18 2.971-3.63 5.018-3.17 2.048.459 2.035 4.323 1.349 5.458l-1.373 2.27s1.361 1.594 2.497 2.279Z" fill="#1B2837"/><path d="M73.49 61.269C76.309 51.863 85.04 45 95.388 45h2.346v45.5A12.44 12.44 0 0 1 86.31 98c-6.83 0-12.377-5.501-12.43-12.304a12.417 12.417 0 0 1-9.64-2.133 9.72 9.72 0 0 1-5.493 1.69C53.363 85.253 49 80.9 49 75.525s4.363-9.728 9.748-9.728a9.71 9.71 0 0 1 2.743.396c2.265-3.08 5.909-5.092 10.03-5.092.672 0 1.324.067 1.97.168Z" fill="url(#LIGHT/ILLUSTRATIONS/Seat window__g)"/><path d="M286.934 78.891c-.363-4.418-4.047-7.891-8.539-7.891-3.88 0-7.155 2.59-8.211 6.14a4.756 4.756 0 0 0-.739-.064c-1.545 0-2.911.76-3.761 1.922a3.624 3.624 0 0 0-1.029-.15A3.662 3.662 0 0 0 261 82.52a3.662 3.662 0 0 0 3.655 3.67 3.63 3.63 0 0 0 2.06-.637 4.636 4.636 0 0 0 3.615.805c.02 2.567 2.1 4.643 4.662 4.643a4.665 4.665 0 0 0 4.283-2.83 8.498 8.498 0 0 0 3.764-1.33 4.624 4.624 0 0 0 3.297 1.375c2.577 0 4.664-2.096 4.664-4.683a4.674 4.674 0 0 0-4.066-4.64Z" fill="url(#LIGHT/ILLUSTRATIONS/Seat window__h)"/><defs><filter id="LIGHT/ILLUSTRATIONS/Seat window__a" x="0" y="0" width="140" height="160" filterUnits="userSpaceOnUse" color-interpolation-filters="sRGB"><feFlood flood-opacity="0" result="BackgroundImageFix"/><feColorMatrix in="SourceAlpha" values="0 0 0 0 0 0 0 0 0 0 0 0 0 0 0 0 0 0 127 0" result="hardAlpha"/><feOffset dy="12"/><feGaussianBlur stdDeviation="20"/><feColorMatrix values="0 0 0 0 0.849244 0 0 0 0 0.869846 0 0 0 0 0.89388 0 0 0 1 0"/><feBlend in2="BackgroundImageFix" result="effect1_dropShadow_135_398"/><feBlend in="SourceGraphic" in2="effect1_dropShadow_135_398" result="shape"/></filter><filter id="LIGHT/ILLUSTRATIONS/Seat window__b" x="100" y="0" width="140" height="160" filterUnits="userSpaceOnUse" color-interpolation-filters="sRGB"><feFlood flood-opacity="0" result="BackgroundImageFix"/><feColorMatrix in="SourceAlpha" values="0 0 0 0 0 0 0 0 0 0 0 0 0 0 0 0 0 0 127 0" result="hardAlpha"/><feOffset dy="12"/><feGaussianBlur stdDeviation="20"/><feColorMatrix values="0 0 0 0 0.849244 0 0 0 0 0.869846 0 0 0 0 0.89388 0 0 0 1 0"/><feBlend in2="BackgroundImageFix" result="effect1_dropShadow_135_398"/><feBlend in="SourceGraphic" in2="effect1_dropShadow_135_398" result="shape"/></filter><filter id="LIGHT/ILLUSTRATIONS/Seat window__c" x="200" y="0" width="140" height="160" filterUnits="userSpaceOnUse" color-interpolation-filters="sRGB"><feFlood flood-opacity="0" result="BackgroundImageFix"/><feColorMatrix in="SourceAlpha" values="0 0 0 0 0 0 0 0 0 0 0 0 0 0 0 0 0 0 127 0" result="hardAlpha"/><feOffset dy="12"/><feGaussianBlur stdDeviation="20"/><feColorMatrix values="0 0 0 0 0.849244 0 0 0 0 0.869846 0 0 0 0 0.89388 0 0 0 1 0"/><feBlend in2="BackgroundImageFix" result="effect1_dropShadow_135_398"/><feBlend in="SourceGraphic" in2="effect1_dropShadow_135_398" result="shape"/></filter><filter id="LIGHT/ILLUSTRATIONS/Seat window__d" x="158.309" y="152.836" width="48.801" height="40.783" filterUnits="userSpaceOnUse" color-interpolation-filters="sRGB"><feFlood flood-opacity="0" result="BackgroundImageFix"/><feBlend in="SourceGraphic" in2="BackgroundImageFix" result="shape"/><feGaussianBlur stdDeviation="6" result="effect1_foregroundBlur_135_398"/></filter><filter id="LIGHT/ILLUSTRATIONS/Seat window__e" x="147.215" y="139.762" width="64.532" height="39.603" filterUnits="userSpaceOnUse" color-interpolation-filters="sRGB"><feFlood flood-opacity="0" result="BackgroundImageFix"/><feBlend in="SourceGraphic" in2="BackgroundImageFix" result="shape"/><feGaussianBlur stdDeviation="6" result="effect1_foregroundBlur_135_398"/></filter><linearGradient id="LIGHT/ILLUSTRATIONS/Seat window__g" x1="73.366" y1="45" x2="73.366" y2="81.5" gradientUnits="userSpaceOnUse"><stop stop-color="#fff"/><stop offset="1" stop-color="#fff" stop-opacity="0"/></linearGradient><linearGradient id="LIGHT/ILLUSTRATIONS/Seat window__h" x1="276" y1="71" x2="276" y2="84.774" gradientUnits="userSpaceOnUse"><stop stop-color="#fff"/><stop offset="1" stop-color="#fff" stop-opacity="0"/></linearGradient></defs></svg>