<svg width="255" height="259" fill="none" xmlns="http://www.w3.org/2000/svg"><path d="M33.905 154.242c-2.421-1.611-9.686-11.281-9.686-11.281l-7.264-3.223s3.228 8.058 4.036 12.087c.807 4.029 3.228 11.281 4.843 13.698 1.614 2.418 8.879-7.252 8.879-7.252l-.808-4.029Z" fill="#F1F3F6"/><path d="M38.748 121.204s.807 4.029.807 6.446c0 2.418 0 3.224.807 4.835.808 1.612 1.615 3.223.808 4.835-.808 1.612-2.422 4.029-2.422 4.835s.807 2.417-1.614 4.029c-2.422 1.612-6.458 4.029-11.3.806-4.844-3.223-7.968-6.85-7.968-6.85l-2.526-14.101 10.493-7.253h10.494l2.421 2.418Z" fill="#F1F3F6"/><path d="M20.183 139.737c-1.275 1.274 0 4.835-.807 4.835s-1.614 0-3.229-4.029c-1.614-4.029-4.843-12.087-3.228-16.922 1.614-4.835 6.457-8.058 9.686-8.864 3.228-.805 14.529 0 16.143 0 1.615 0 7.265-4.029 7.265-4.029s-.807 3.224-3.229 5.641h3.229l-4.843 3.223 3.229.806s-3.23 2.417-4.843 2.417c1.614 1.612 2.421 1.612 2.421 1.612s-4.036 2.417-8.879.806c0 0-4.036-.806-4.036 3.223s.807 5.641 0 6.447c-.807.805-2.421 0-4.036-2.418-1.614-2.417-3.229-2.417-4.843-1.611-1.614.805-.807 4.029 0 4.834l1.614 1.612s-.807 1.612-1.614 2.417Zm54.555 3.266-1.493-.621a.808.808 0 0 1-.436-1.055l5.925-14.126a.81.81 0 0 1 1.057-.435l1.493.62a.81.81 0 0 1 .436 1.056l-5.924 14.126a.812.812 0 0 1-1.058.435Z" fill="#1B2837"/><path d="M71.614 149.796c-1.614-4.835-3.228-10.476-.807-9.67 2.422.806 3.229 2.417 5.65-2.418 2.422-4.834 4.844-6.446 4.844-1.611s-3.23 9.669-6.458 13.699c-3.229 4.029-3.229 0-3.229 0Z" fill="#F1F3F6"/><path d="m72.65 191.309 41.974-3.223 14.529 11.282 9.686 52.377h-3.229l-19.372-37.252a8.107 8.107 0 0 0-7.66-4.352l-37.542 2.12 1.614-20.952Z" fill="#1B2837"/><path d="M64.578 175.193c13.722-1.611 40.359-6.446 45.203-1.611 4.843 4.834 46.009 49.154 46.009 49.154l-2.422 3.223-45.452-30.177a10.988 10.988 0 0 0-6.603-1.926l-42.393 1.482 5.658-20.145Z" fill="#1B2837"/><path d="M96.865 171.358s5.651-2.417 11.301 0c4.326 1.854 6.457 4.835 7.264 7.253.808 2.417-.807 4.834-4.843 1.611s-4.843-4.029-4.843-4.029 1.615 4.835-.807 4.029c-2.421-.806-8.072-8.864-8.072-8.864Z" fill="#F1F3F6"/><path d="M62.157 175.999c8.071-1.612 24.215-5.641 30.672-5.641 6.458 0 11.301 2.418 4.844 4.835-6.458 2.417-33.095 12.087-33.095 12.087l-5.65-4.835 3.229-6.446Z" fill="#DBE8EB"/><path d="M71.843 191.309 58.12 172.776s-22.803-19.477-26.734-20.21c-3.94-.741-9.59 4.899-10.397 9.734-.807 4.835 19.373 31.427 19.373 31.427l31.48-2.418Z" fill="#DBE8EB"/><g opacity=".5" filter="url(#LIGHT/ILLUSTRATIONS/Change Password__a)"><ellipse cx="47.142" cy="179.933" rx="8.238" ry="12.5" transform="rotate(-37.46 47.142 179.933)" fill="#A6C5CD"/></g><path d="M31.186 153.046c-4.698 1.176-8.54 6.172-.637 15.576 7.902 9.404 20.817 15.045 25.66 16.656 4.843 1.612 12.108 4.835 14.53-6.446 2.42-11.282 7.264-28.204 4.035-31.427-4.036-3.405-8.879 13.699-10.493 18.534-1.615 4.835-2.422 8.058-2.422 8.058s-24.215-22.563-30.673-20.951Z" fill="#DBE8EB"/><path d="m152.561 225.153 1.848 4.916a1.448 1.448 0 0 0 2.027.773l15.554-8.074c.702-.362.395-1.426-.396-1.362l-16.611 1.33-2.422 2.417Zm-16.983 26.205-.613 5.214a1.45 1.45 0 0 0 1.445 1.62l17.532-.073c.791 0 1.009-1.088.274-1.394l-15.377-6.414-3.261 1.047ZM23.128 223a2 2 0 0 0-1.845 1.227L8.431 254.876a2 2 0 0 0 1.845 2.774h1.47a2 2 0 0 0 1.745-1.024l17.136-30.65c.746-1.333-.218-2.976-1.745-2.976h-5.754Zm61.031 0a2 2 0 0 1 1.844 1.227l12.852 30.649a2 2 0 0 1-1.844 2.774h-1.47a2 2 0 0 1-1.745-1.024l-17.137-30.65c-.745-1.333.219-2.976 1.746-2.976h5.754Z" fill="#1B2837"/><path d="M8.293 144.032c-5.52.274-9.403 5.544-8.007 10.887l13.448 51.693L47.635 205l-31.27-56.479a8.75 8.75 0 0 0-8.072-4.489Z" fill="#D9DEE4"/><path d="m17.197 227.015-7.192-28.18c-.993-3.875 1.84-7.687 5.852-7.856l63.299-2.748a6.314 6.314 0 0 1 5.198 2.345l17.734 21.999c3.011 3.739.751 9.323-4.02 9.911l-73.962 9.227c-3.164.394-6.126-1.62-6.91-4.698Z" fill="#F1F3F6"/><g filter="url(#LIGHT/ILLUSTRATIONS/Change Password__b)"><circle cx="152.5" cy="90.5" r="62.5" fill="#F1F3F6"/><circle cx="152.5" cy="90.5" r="59.5" stroke="#fff" stroke-width="6"/></g><path d="M142.852 122.252C141.678 108.115 129.769 97 115.244 97c-12.545 0-23.134 8.288-26.549 19.646a15.427 15.427 0 0 0-2.388-.203c-4.997 0-9.415 2.43-12.162 6.149a11.819 11.819 0 0 0-3.326-.478c-6.529 0-11.819 5.258-11.819 11.747s5.29 11.747 11.82 11.747c2.47 0 4.76-.754 6.659-2.042a15.1 15.1 0 0 0 8.828 2.852c.978 0 1.932-.097 2.86-.276.066 8.215 6.79 14.858 15.072 14.858a15.084 15.084 0 0 0 13.849-9.057 27.658 27.658 0 0 0 12.17-4.253 15.032 15.032 0 0 0 10.662 4.399c8.331 0 15.08-6.708 15.08-14.988 0-7.623-5.73-13.902-13.148-14.849Z" fill="url(#LIGHT/ILLUSTRATIONS/Change Password__c)"/><path d="M158.693 80.048C159.201 73.863 164.358 69 170.647 69c5.432 0 10.017 3.626 11.495 8.595a6.656 6.656 0 0 1 1.034-.089 6.513 6.513 0 0 1 5.266 2.69 5.1 5.1 0 0 1 1.44-.209c2.827 0 5.118 2.3 5.118 5.14 0 2.839-2.291 5.139-5.118 5.139a5.08 5.08 0 0 1-2.883-.893 6.494 6.494 0 0 1-5.061 1.127c-.029 3.594-2.94 6.5-6.526 6.5-2.686 0-4.994-1.63-5.997-3.963a11.888 11.888 0 0 1-5.269-1.86 6.475 6.475 0 0 1-4.617 1.924c-3.607 0-6.529-2.934-6.529-6.557a6.544 6.544 0 0 1 5.693-6.496Z" fill="url(#LIGHT/ILLUSTRATIONS/Change Password__d)"/><defs><linearGradient id="LIGHT/ILLUSTRATIONS/Change Password__c" x1="107.5" y1="97" x2="107.5" y2="141.075" gradientUnits="userSpaceOnUse"><stop stop-color="#fff"/><stop offset="1" stop-color="#fff" stop-opacity="0"/></linearGradient><linearGradient id="LIGHT/ILLUSTRATIONS/Change Password__d" x1="174" y1="69" x2="174" y2="88.283" gradientUnits="userSpaceOnUse"><stop stop-color="#fff"/><stop offset="1" stop-color="#fff" stop-opacity="0"/></linearGradient><filter id="LIGHT/ILLUSTRATIONS/Change Password__a" x="25.114" y="156.815" width="44.057" height="46.236" filterUnits="userSpaceOnUse" color-interpolation-filters="sRGB"><feFlood flood-opacity="0" result="BackgroundImageFix"/><feBlend in="SourceGraphic" in2="BackgroundImageFix" result="shape"/><feGaussianBlur stdDeviation="6" result="effect1_foregroundBlur_140_2123"/></filter><filter id="LIGHT/ILLUSTRATIONS/Change Password__b" x="50" y="0" width="205" height="205" filterUnits="userSpaceOnUse" color-interpolation-filters="sRGB"><feFlood flood-opacity="0" result="BackgroundImageFix"/><feColorMatrix in="SourceAlpha" values="0 0 0 0 0 0 0 0 0 0 0 0 0 0 0 0 0 0 127 0" result="hardAlpha"/><feOffset dy="12"/><feGaussianBlur stdDeviation="20"/><feColorMatrix values="0 0 0 0 0.849244 0 0 0 0 0.869846 0 0 0 0 0.89388 0 0 0 1 0"/><feBlend in2="BackgroundImageFix" result="effect1_dropShadow_140_2123"/><feBlend in="SourceGraphic" in2="effect1_dropShadow_140_2123" result="shape"/></filter></defs></svg>